<svg width="20" height="18" viewBox="0 0 20 18" fill="none"
    xmlns="http://www.w3.org/2000/svg">
    <g clip-path="url(#clip0_213_5)">
        <path d="M18.5429 2.53086H18.3895C18.2132 2.1405 17.8687 1.87475 17.4734 1.87475H14.6604V1.30905C14.6604 0.582876 14.1681 -0.00793457 13.563 -0.00793457H6.43737C5.83199 -0.00793457 5.33947 0.582822 5.33947 1.30905V1.87475H2.52664C2.13134 1.87475 1.78684 2.1405 1.61053 2.53086H1.45711C0.65367 2.53086 0 3.31527 0 4.27939V16.2594C0 17.2236 0.65367 18.008 1.45711 18.008H18.5429C19.3463 18.008 20 17.2236 20 16.2594V4.27939C20 3.31527 19.3463 2.53086 18.5429 2.53086ZM5.97907 1.30905C5.97907 1.00614 6.18467 0.759637 6.43732 0.759637H13.563C13.8154 0.759637 14.0208 1.00608 14.0208 1.30905V1.87475H5.97907V1.30905ZM2.12503 3.12425C2.12503 2.85851 2.30518 2.64233 2.52664 2.64233H17.4733C17.6948 2.64233 17.8749 2.85851 17.8749 3.12425V12.2389C17.8749 13.5056 17.0161 14.5362 15.9605 14.5362H12.1835L12.3853 13.1438H7.6144L7.81621 14.5362H4.03948C2.98389 14.5362 2.12508 13.5056 2.12508 12.2389L2.12503 3.12425ZM11.6248 13.9114L11.38 15.6005H8.61974L8.37494 13.9114H11.6248ZM19.3604 16.2594C19.3604 16.8003 18.9937 17.2404 18.5429 17.2404H1.45711C1.00639 17.2404 0.639643 16.8004 0.639643 16.2594V4.27939C0.639643 3.73853 1.00634 3.29844 1.45711 3.29844H1.48543V12.2389C1.48543 13.9289 2.63117 15.3038 4.03948 15.3038H7.92746L8.08171 16.368H11.918L12.0723 15.3038H15.9605C17.3688 15.3038 18.5146 13.9289 18.5146 12.2389V3.29844H18.5429C18.9936 3.29844 19.3604 3.73847 19.3604 4.27939V16.2594Z" fill="white"/>
    </g>
    <defs>
        <clipPath id="clip0_213_5">
            <rect width="20" height="18" fill="white"/>
        </clipPath>
    </defs>
</svg>