<svg width="18" height="18" viewBox="0 0 18 18" fill="none"
    xmlns="http://www.w3.org/2000/svg">
    <g clip-path="url(#clip0_235_10)">
        <path d="M10.6369 0.157499C10.5561 0.142262 10.4729 0.144942 10.3932 0.165352C10.3135 0.185761 10.2393 0.223403 10.1757 0.275624C10.1122 0.328512 10.0611 0.394741 10.0261 0.469601C9.99112 0.54446 9.97305 0.626112 9.97318 0.708749V3.06562C9.96914 3.19336 10.0087 3.31867 10.0854 3.42091C10.1621 3.52316 10.2713 3.59624 10.3951 3.62812C11.7069 3.97011 12.8491 4.77841 13.6079 5.90174C14.3668 7.02508 14.6903 8.38645 14.5179 9.73109C14.3455 11.0757 13.689 12.3115 12.6713 13.207C11.6536 14.1026 10.3444 14.5966 8.98881 14.5966C7.63317 14.5966 6.32398 14.1026 5.30628 13.207C4.28857 12.3115 3.63208 11.0757 3.45969 9.73109C3.2873 8.38645 3.61081 7.02508 4.36968 5.90174C5.12855 4.77841 6.27076 3.97011 7.58256 3.62812C7.70632 3.59624 7.81553 3.52316 7.89221 3.42091C7.9689 3.31867 8.00847 3.19336 8.00443 3.06562V0.708749C8.00457 0.626112 7.98649 0.54446 7.95149 0.469601C7.91649 0.394741 7.86543 0.328512 7.80193 0.275624C7.73837 0.223403 7.66412 0.185761 7.58442 0.165352C7.50473 0.144942 7.42153 0.142262 7.34068 0.157499C5.13345 0.565749 3.15844 1.78407 1.80317 3.57342C0.447891 5.36277 -0.189818 7.59398 0.0151629 9.82926C0.220144 12.0646 1.25302 14.1426 2.91113 15.6556C4.56924 17.1686 6.73289 18.0074 8.97756 18.0074C11.2222 18.0074 13.3859 17.1686 15.044 15.6556C16.7021 14.1426 17.735 12.0646 17.94 9.82926C18.1449 7.59398 17.5072 5.36277 16.1519 3.57342C14.7967 1.78407 12.8217 0.565749 10.6144 0.157499H10.6369ZM9.00006 16.875C7.09627 16.8731 5.25765 16.1815 3.82446 14.9284C2.39128 13.6752 1.46057 11.9453 1.2046 10.0588C0.948631 8.17233 1.38473 6.25697 2.43217 4.66724C3.47962 3.07751 5.0675 1.92104 6.90193 1.41187V2.64375C5.38944 3.14253 4.1041 4.16382 3.27643 5.52448C2.44875 6.88514 2.13289 8.49615 2.38548 10.0686C2.63806 11.6411 3.44258 13.0721 4.65475 14.1051C5.86691 15.1381 7.40744 15.7055 9.00006 15.7055C10.5927 15.7055 12.1332 15.1381 13.3454 14.1051C14.5575 13.0721 15.3621 11.6411 15.6146 10.0686C15.8672 8.49615 15.5514 6.88514 14.7237 5.52448C13.896 4.16382 12.6107 3.14253 11.0982 2.64375V1.41187C12.9326 1.92104 14.5205 3.07751 15.5679 4.66724C16.6154 6.25697 17.0515 8.17233 16.7955 10.0588C16.5395 11.9453 15.6088 13.6752 14.1757 14.9284C12.7425 16.1815 10.9038 16.8731 9.00006 16.875Z" fill="white"/>
    </g>
    <defs>
        <clipPath id="clip0_235_10">
            <rect width="18" height="18" fill="white"/>
        </clipPath>
    </defs>
</svg>