<svg width="18" height="18" viewBox="0 0 18 18" fill="none"
	xmlns="http://www.w3.org/2000/svg">
	<path d="M16.7885 0.692322H1.21161C0.934691 0.692322 0.692383 0.934629 0.692383 1.21155V2.94232C0.692383 3.21924 0.934691 3.46155 1.21161 3.46155H16.7885C17.0655 3.46155 17.3078 3.21924 17.3078 2.94232V1.21155C17.3078 0.934629 17.0655 0.692322 16.7885 0.692322Z" fill="white"/>
	<path d="M16.7884 4.84619H4.67304C4.39612 4.84619 4.15381 5.0885 4.15381 5.36542V6.40388C4.15381 6.68081 4.39612 6.92311 4.67304 6.92311H16.7884C17.0653 6.92311 17.3077 6.68081 17.3077 6.40388V5.36542C17.3077 5.0885 17.0653 4.84619 16.7884 4.84619Z" fill="white"/>
	<path d="M16.7884 11.7692H4.67304C4.39612 11.7692 4.15381 12.0115 4.15381 12.2885V13.3269C4.15381 13.6038 4.39612 13.8461 4.67304 13.8461H16.7884C17.0653 13.8461 17.3077 13.6038 17.3077 13.3269V12.2885C17.3077 12.0115 17.0653 11.7692 16.7884 11.7692Z" fill="white"/>
	<path d="M16.7885 15.2308H3.28854C3.01161 15.2308 2.76931 14.9885 2.76931 14.7115V12.2885C2.76931 12.0115 2.527 11.7692 2.25008 11.7692H1.21161C0.934691 11.7692 0.692383 12.0115 0.692383 12.2885V16.7885C0.692383 17.0654 0.934691 17.3077 1.21161 17.3077H2.25008H2.76931H16.7885C17.0655 17.3077 17.3078 17.0654 17.3078 16.7885V15.75C17.3078 15.4731 17.0655 15.2308 16.7885 15.2308Z" fill="white"/>
	<path d="M16.7885 8.30773H3.28854C3.01161 8.30773 2.76931 8.06542 2.76931 7.7885V5.36542C2.76931 5.0885 2.527 4.84619 2.25008 4.84619H1.21161C0.934691 4.84619 0.692383 5.0885 0.692383 5.36542V9.86542C0.692383 10.1423 0.934691 10.3847 1.21161 10.3847H1.90392H2.76931H16.7885C17.0655 10.3847 17.3078 10.1423 17.3078 9.86542V8.82696C17.3078 8.55004 17.0655 8.30773 16.7885 8.30773Z" fill="white"/>
</svg>