<svg width="60" height="60" viewBox="0 0 60 60" fill="none"
    xmlns="http://www.w3.org/2000/svg">
    <g clip-path="url(#clip0_128_617)">
        <path d="M7.6165 5.53418C7.78878 2.73122 8.51676 1.51233 10.6044 0.533528C12.8507 -0.519971 16.3936 -0.0297042 20.5625 1.9119C22.3581 2.74858 22.5409 2.76561 25.6878 2.39454C29.8706 1.90112 35.2555 1.90286 39.1162 2.39905C42.0357 2.77429 42.2274 2.75554 44.0274 1.91712C49.9449 -0.838937 54.6168 -0.658607 56.3085 2.39105C57.1529 3.91328 57.3097 7.86319 56.655 11.121C56.2919 12.9271 56.3304 13.1526 57.205 14.3378C63.3579 22.6772 58.9245 36.1949 48.381 41.2395C47.5742 41.6256 46.8943 41.8645 46.3402 42.0591C44.6387 42.6566 44.1221 42.8381 44.7476 45.5886C45.0487 46.9116 45.4115 50.2008 45.5541 52.8985C45.8118 57.7747 45.8079 57.8087 44.878 58.8036C43.6124 60.1568 41.7881 60.1796 40.552 58.8577C39.7458 57.9957 39.6671 57.5886 39.6671 54.2626C39.6671 49.3475 39.0813 46.0806 37.6973 43.2811C36.0514 39.9497 37.2715 38.7075 41.0354 37.963C46.2671 36.9279 50.3532 33.9584 52.6307 29.5364C54.7961 25.3328 55.1224 19.5239 51.2076 15.991C50.0943 14.7742 50.0168 13.672 50.8118 10.3486C51.1088 9.10643 51.3579 7.50392 51.3653 6.78711C51.3766 5.65508 51.2644 5.48414 50.5085 5.48414C50.0301 5.48414 48.2023 6.12417 46.4473 6.90629L43.6461 8.155C43.3913 8.26849 43.1064 8.31214 42.8254 8.28248C35.7026 7.53053 28.9345 7.51892 21.7769 8.28542C21.4948 8.31562 21.2086 8.27198 20.953 8.15791L18.1533 6.90839C16.3981 6.12485 14.5704 5.48414 14.0921 5.48414C12.9863 5.48414 12.9697 6.235 13.9777 10.696C14.5934 13.4205 15.0077 14.0276 13.2278 16.2061C10.5598 19.4715 9.89342 23.5263 11.3241 27.7867C13.1273 33.1554 17.5428 36.7823 23.7506 37.9924C27.4928 38.7219 28.4709 39.6738 27.0419 43.6204C25.9171 46.7263 25.2058 47.5268 23.5711 47.5268C21.3717 47.5268 19.9939 45.7745 20.7521 43.9407C21.0861 43.1325 20.9867 43.0463 18.9263 42.3551C12.6365 40.246 7.82579 35.5187 5.62632 29.2852C3.92629 24.4676 4.67431 18.197 7.40156 14.4069C8.33014 13.1164 8.34451 13.007 7.91117 10.5365C7.66599 9.13805 7.53339 6.88719 7.6165 5.53418Z" fill="white"/>
        <path d="M5.42008 40.7766C4.51372 39.5263 2.67683 39.1883 1.31727 40.0221C-0.0422557 40.8555 -0.409652 42.5451 0.496709 43.7954C1.16585 44.7187 1.96635 45.477 2.64615 46.1021C2.77147 46.2174 2.89325 46.3287 3.01215 46.4373C3.58159 46.9576 4.08437 47.4169 4.58934 47.9622C5.70624 49.1679 6.82047 50.7919 7.45372 53.704C7.73579 55.0011 8.74955 55.6999 9.31127 56.0052C9.92044 56.3361 10.586 56.5312 11.1337 56.6583C12.2542 56.9181 13.6143 57.0531 14.9052 57.1317C16.3222 57.2183 17.8576 57.2463 19.2306 57.2539C19.2316 58.7557 20.5558 59.9731 22.1892 59.9731C23.8232 59.9731 25.1477 58.7549 25.1477 57.252V54.5309C25.1477 53.0281 23.8232 51.8098 22.1892 51.8098C21.9103 51.8098 21.6085 51.8106 21.2889 51.8117C19.5526 51.8166 17.2895 51.8229 15.2963 51.7015C14.3351 51.643 13.545 51.56 12.9656 51.4585C12.0733 48.237 10.6319 46.0936 9.09375 44.433C8.41381 43.6991 7.70973 43.0569 7.13703 42.5345C7.02982 42.4368 6.92721 42.3432 6.8302 42.2539C6.1694 41.6463 5.73715 41.2142 5.42008 40.7766Z" fill="white"/>
    </g>
    <defs>
        <clipPath id="clip0_128_617">
            <rect width="60" height="60" fill="white"/>
        </clipPath>
    </defs>
</svg>