<svg width="60" height="60" viewBox="0 0 60 60" fill="none"
    xmlns="http://www.w3.org/2000/svg">
    <g clip-path="url(#clip0_128_678)">
        <path d="M15.0135 19.1008C17.2708 19.1008 19.1007 17.2709 19.1007 15.0136C19.1007 12.7563 17.2708 10.9265 15.0135 10.9265C12.7562 10.9265 10.9263 12.7563 10.9263 15.0136C10.9263 17.2709 12.7562 19.1008 15.0135 19.1008Z" fill="white"/>
        <path d="M10.9263 24.5504C10.9263 23.0456 12.1462 21.8256 13.6511 21.8256H16.3759C17.8807 21.8256 19.1007 23.0455 19.1007 24.5504V46.3488C19.1007 47.8537 17.8807 49.0736 16.3759 49.0736H13.6511C12.1462 49.0736 10.9263 47.8537 10.9263 46.3488V24.5504Z" fill="white"/>
        <path d="M27.2751 49.0736H29.9999C31.5048 49.0736 32.7247 47.8537 32.7247 46.3488V34.0872C32.7247 30 40.8991 27.2752 40.8991 32.7248V46.3499C40.8991 47.8548 42.119 49.0736 43.6239 49.0736H46.3487C47.8536 49.0736 49.0735 47.8537 49.0735 46.3488V30C49.0735 24.5504 44.9863 21.8256 39.5367 21.8256C34.0871 21.8256 32.7247 25.9128 32.7247 25.9128V24.5504C32.7247 23.0455 31.5048 21.8256 29.9999 21.8256H27.2751C25.7702 21.8256 24.5503 23.0456 24.5503 24.5504V46.3488C24.5503 47.8537 25.7702 49.0736 27.2751 49.0736Z" fill="white"/>
        <path fill-rule="evenodd" clip-rule="evenodd" d="M51.7985 0.0272217C56.3132 0.0272217 59.9728 3.68703 59.9728 8.20161V51.7983C59.9728 56.313 56.3132 59.9727 51.7985 59.9727H8.20173C3.68715 59.9727 0.0273438 56.313 0.0273438 51.7983V8.20161C0.0273438 3.68703 3.68715 0.0272217 8.20173 0.0272217H51.7985ZM51.7985 5.47681C53.3034 5.47681 54.5233 6.69676 54.5233 8.20161V51.7983C54.5233 53.3032 53.3034 54.5231 51.7985 54.5231H8.20173C6.69688 54.5231 5.47693 53.3032 5.47693 51.7983V8.20161C5.47693 6.69676 6.69688 5.47681 8.20173 5.47681H51.7985Z" fill="white"/>
    </g>
    <defs>
        <clipPath id="clip0_128_678">
            <rect width="60" height="60" fill="white"/>
        </clipPath>
    </defs>
</svg>