<svg width="15" height="9" viewBox="0 0 15 9" fill="none"
    xmlns="http://www.w3.org/2000/svg">
    <g clip-path="url(#clip0_202_60)">
        <path d="M2.78283 2.8523L1.2968 1.32135C0.47701 2.16415 0.0166016 3.30615 0.0166016 4.49677C0.0166016 5.68739 0.47701 6.82939 1.2968 7.67219L2.78916 6.14124C2.36394 5.70554 2.12449 5.11465 2.1233 4.49811C2.12212 3.88158 2.35929 3.28972 2.78283 2.8523Z" fill="white"/>
        <path d="M1.29688 1.3213L2.7829 2.85225C2.99374 2.6357 3.24412 2.46392 3.51972 2.34671C3.79532 2.2295 4.09074 2.16917 4.38908 2.16917C4.68742 2.16917 4.98284 2.2295 5.25844 2.34671C5.53404 2.46392 5.78442 2.6357 5.99526 2.85225L7.07658 0.951534L7.01335 0.899638C6.16991 0.254107 5.1282 -0.0585144 4.0786 0.0189063C3.02901 0.0963269 2.04161 0.55862 1.29688 1.3213Z" fill="white"/>
        <path d="M7.0829 8.04193L5.99526 6.14771C5.78442 6.36425 5.53404 6.53603 5.25844 6.65324C4.98284 6.77045 4.68742 6.83078 4.38908 6.83078C4.09074 6.83078 3.79532 6.77045 3.51972 6.65324C3.24412 6.53603 2.99374 6.36425 2.7829 6.14771L1.29688 7.67865C2.04013 8.43453 3.02254 8.89257 4.0664 8.96991C5.11026 9.04725 6.14664 8.73878 6.98805 8.10031L7.05761 8.04193" fill="white"/>
        <path d="M7.49993 1.32132C6.68013 2.16412 6.21973 3.30612 6.21973 4.49674C6.21973 5.68737 6.68013 6.82937 7.49993 7.67216L8.99228 6.14122C8.5663 5.70421 8.32698 5.11151 8.32698 4.4935C8.32698 3.87549 8.5663 3.28279 8.99228 2.84578C9.41827 2.40878 9.99602 2.16328 10.5985 2.16328C11.2009 2.16328 11.7787 2.40878 12.2046 2.84578L13.7033 1.32132C13.2963 0.90295 12.8128 0.571031 12.2806 0.344563C11.7484 0.118096 11.1778 0.00152588 10.6016 0.00152588C10.0254 0.00152588 9.45489 0.118096 8.92266 0.344563C8.39043 0.571031 7.90696 0.90295 7.49993 1.32132Z" fill="white"/>
        <path d="M13.7034 1.32135L12.2174 2.8523C12.6433 3.2893 12.8827 3.882 12.8827 4.50001C12.8827 5.11803 12.6433 5.71073 12.2174 6.14773C11.7914 6.58473 11.2136 6.83024 10.6112 6.83024C10.0087 6.83024 9.43098 6.58473 9.005 6.14773L7.5 7.67868C8.32178 8.52257 9.43669 8.99701 10.5995 8.99762C11.1752 8.99792 11.7454 8.88188 12.2774 8.65614C12.8094 8.43039 13.2929 8.09935 13.7002 7.68192C14.1075 7.26449 14.4307 6.76885 14.6513 6.22329C14.8719 5.67773 14.9856 5.09294 14.9859 4.50231C14.9862 3.91167 14.8731 3.32676 14.653 2.78098C14.433 2.23519 14.1103 1.7392 13.7034 1.32135Z" fill="white"/>
    </g>
    <defs>
        <clipPath id="clip0_202_60">
            <rect width="15" height="9" fill="white"/>
        </clipPath>
    </defs>
</svg>