<svg width="18" height="18" viewBox="0 0 18 18" fill="none"
    xmlns="http://www.w3.org/2000/svg">
    <g clip-path="url(#clip0_121_2)">
        <path d="M6.30524 9L8.10164 10.7964L11.6945 7.20359M8.99985 0.916168L10.7155 2.59713L13.0418 1.9992L13.687 4.31277L16.0006 4.95808L15.4027 7.28434L17.0837 9L15.4027 10.7157L16.0006 13.0419L13.687 13.6872L13.0418 16.0008L10.7155 15.4028L8.99985 17.0838L7.28419 15.4028L4.95793 16.0008L4.31262 13.6872L1.99904 13.0419L2.59698 10.7157L0.916016 9L2.59698 7.28434L1.99904 4.95808L4.31262 4.31277L4.95793 1.9992L7.28419 2.59713L8.99985 0.916168Z" stroke="white" stroke-linecap="round" stroke-linejoin="round"/>
    </g>
    <defs>
        <clipPath id="clip0_121_2">
            <rect width="18" height="18" fill="white"/>
        </clipPath>
    </defs>
</svg>