<svg width="18" height="18" viewBox="0 0 18 18" fill="none"
    xmlns="http://www.w3.org/2000/svg">
    <g clip-path="url(#clip0_132_96)">
        <path d="M0.84375 3.24301C0.84375 10.8074 7.08938 16.9396 14.7938 16.9396C15.1413 16.9396 15.4859 16.9272 15.8272 16.9026C16.2188 16.8744 16.4146 16.8604 16.5929 16.7596C16.7405 16.6762 16.8804 16.5283 16.9544 16.3776C17.0438 16.1958 17.0438 15.9836 17.0438 15.5594V13.0698C17.0438 12.713 17.0438 12.5346 16.9839 12.3817C16.9312 12.2466 16.8453 12.1264 16.7341 12.0315C16.6081 11.924 16.4373 11.863 16.0959 11.7411L13.2098 10.7107C12.8124 10.5688 12.6137 10.4979 12.4252 10.5099C12.259 10.5205 12.0991 10.5763 11.9632 10.6708C11.8091 10.778 11.7004 10.956 11.4828 11.312L10.7438 12.5214C8.35884 11.4609 6.42546 9.56015 5.34375 7.21944L6.57552 6.4938C6.93806 6.28023 7.11932 6.17344 7.22853 6.02215C7.32483 5.88873 7.38162 5.7317 7.39242 5.56851C7.40466 5.38345 7.33239 5.18839 7.18794 4.79828L6.13844 1.96455C6.01425 1.62924 5.95216 1.46159 5.84273 1.33794C5.74606 1.22871 5.62355 1.14446 5.48597 1.09259C5.33021 1.03387 5.14852 1.03387 4.78514 1.03387H2.24956C1.81744 1.03387 1.60138 1.03387 1.41613 1.12158C1.2627 1.19422 1.11208 1.33167 1.02708 1.47661C0.924462 1.65161 0.910125 1.84385 0.881451 2.22833C0.856467 2.56335 0.84375 2.90172 0.84375 3.24301Z" stroke="white" stroke-width="1.5" stroke-linecap="round" stroke-linejoin="round"/>
    </g>
    <defs>
        <clipPath id="clip0_132_96">
            <rect width="18" height="18" fill="white"/>
        </clipPath>
    </defs>
</svg>