<svg width="18" height="18" viewBox="0 0 18 18" fill="none"
    xmlns="http://www.w3.org/2000/svg">
    <g clip-path="url(#clip0_112_24)">
        <path d="M13.5046 8.0991H4.49561M11.7028 8.0991V9.9009M12.6037 4.49549H5.39651V1.79279C5.39651 1.55386 5.49142 1.32471 5.66037 1.15576C5.82933 0.986808 6.05847 0.891891 6.29741 0.891891H11.7028C11.9417 0.891891 12.1709 0.986808 12.3398 1.15576C12.5088 1.32471 12.6037 1.55386 12.6037 1.79279V4.49549Z" stroke="white" stroke-linecap="round" stroke-linejoin="round"/>
        <path d="M17.1079 16.2072V5.3964C17.1079 4.89885 16.7046 4.4955 16.207 4.4955L1.79259 4.4955C1.29504 4.4955 0.891693 4.89885 0.891693 5.3964V16.2072C0.891693 16.7048 1.29504 17.1081 1.79259 17.1081H16.207C16.7046 17.1081 17.1079 16.7048 17.1079 16.2072Z" stroke="white" stroke-linecap="round" stroke-linejoin="round"/>
    </g>
    <defs>
        <clipPath id="clip0_112_24">
            <rect width="18" height="18" fill="white"/>
        </clipPath>
    </defs>
</svg>