<svg width="10" height="18" viewBox="0 0 10 18" fill="none"
    xmlns="http://www.w3.org/2000/svg">
    <g clip-path="url(#clip0_11_827)">
        <path d="M0.0102539 2C0.0102539 0.89543 0.925826 0 2.05524 0C3.18469 0 4.10023 0.89543 4.10023 2C4.10023 2.74028 3.68899 3.38663 3.07774 3.73244V11.0396H4.90954C6.03899 11.0396 6.95453 10.1441 6.95453 9.0396V7.7838C6.33162 7.4411 5.91087 6.78837 5.91087 6.03955C5.91087 4.93498 6.82641 4.03955 7.95586 4.03955C9.0852 4.03955 10.0008 4.93498 10.0008 6.03955C10.0008 6.77123 9.59901 7.4111 8.99952 7.7598V9.0396C8.99952 11.2487 7.16833 13.0396 4.90954 13.0396H3.07774V14.2676C3.68899 14.6134 4.10023 15.2597 4.10023 16C4.10023 17.1046 3.18469 18 2.05524 18C0.925826 18 0.0102539 17.1046 0.0102539 16C0.0102539 15.2597 0.421501 14.6134 1.03275 14.2676V3.73244C0.421501 3.38663 0.0102539 2.74028 0.0102539 2Z" fill="white"/>
    </g>
    <defs>
        <clipPath id="clip0_11_827">
            <rect width="10" height="18" fill="white"/>
        </clipPath>
    </defs>
</svg>