<svg width="18" height="18" viewBox="0 0 18 18" fill="none"
    xmlns="http://www.w3.org/2000/svg">
    <g clip-path="url(#clip0_11_832)">
        <path d="M11.4751 16.8949C12.0523 16.8949 12.0523 17.7727 11.4751 17.7727H0.89889C0.656525 17.7727 0.460083 17.5761 0.460083 17.3337V4.11658C0.460083 3.9954 0.509194 3.88548 0.588493 3.80618L4.03899 0.355895C4.12467 0.270217 4.23692 0.227272 4.34918 0.227272H14.2753C14.5176 0.227272 14.7143 0.423927 14.7143 0.666291V8.34881C14.7143 8.92623 13.8365 8.92623 13.8365 8.34881V1.1051H4.53095L1.33791 4.29835V16.8949H11.4751ZM4.00838 13.026C3.43096 13.026 3.43096 12.1482 4.00838 12.1482H10.5282C11.1056 12.1482 11.1056 13.026 10.5282 13.026H4.00838ZM4.00838 7.18631C3.43096 7.18631 3.43096 6.30849 4.00838 6.30849H10.5282C11.1056 6.30849 11.1056 7.18631 10.5282 7.18631H4.00838ZM4.00838 9.13288C3.43096 9.13288 3.43096 8.25505 4.00838 8.25505H10.5282C11.1056 8.25505 11.1056 9.13288 10.5282 9.13288H4.00838ZM4.00838 11.0794C3.43096 11.0794 3.43096 10.2016 4.00838 10.2016H10.5282C11.1056 10.2016 11.1056 11.0794 10.5282 11.0794H4.00838ZM4.00838 5.23975C3.43096 5.23975 3.43096 4.36192 4.00838 4.36192H10.5282C11.1056 4.36192 11.1056 5.23975 10.5282 5.23975H4.00838ZM14.5655 10.3049C15.6251 10.3049 16.484 11.1638 16.484 12.2234C16.484 12.6083 16.3706 12.9665 16.1757 13.2667C16.9744 13.7967 17.4825 14.6715 17.5391 15.6308C17.5729 16.2061 16.6983 16.2573 16.6647 15.6822C16.6198 14.9235 16.184 14.2476 15.5139 13.8913C15.2341 14.0507 14.9105 14.1417 14.5655 14.1417C14.1921 14.1417 13.8437 14.0352 13.549 13.8507C12.8381 14.1934 12.367 14.8933 12.3204 15.6822C12.2866 16.2573 11.4122 16.2061 11.446 15.6308C11.5053 14.6277 12.0572 13.7199 12.9146 13.2012C12.7448 12.9148 12.6472 12.5806 12.6472 12.2234C12.6472 11.1641 13.5061 10.3049 14.5655 10.3049ZM14.5655 11.1828C13.9908 11.1828 13.525 11.6488 13.525 12.2234C13.525 12.7981 13.9908 13.2639 14.5655 13.2639C15.1401 13.2639 15.6061 12.7981 15.6061 12.2234C15.6061 11.6488 15.1403 11.1828 14.5655 11.1828Z" fill="white"/>
    </g>
    <defs>
        <clipPath id="clip0_11_832">
            <rect width="18" height="18" fill="white"/>
        </clipPath>
    </defs>
</svg>