<svg width="800" height="600" viewBox="0 0 800 600" fill="none"
    xmlns="http://www.w3.org/2000/svg">
    <g clip-path="url(#clip0_213_5)">
        <path d="M741.716 84.3617H735.579C728.526 71.3496 714.747 62.4914 698.935 62.4914H586.418V43.6347C586.418 19.4288 566.726 -0.264893 542.52 -0.264893H257.495C233.28 -0.264893 213.579 19.427 213.579 43.6347V62.4914H101.065C85.2535 62.4914 71.4737 71.3496 64.4212 84.3617H58.2843C26.1468 84.3617 0 110.509 0 142.646V541.979C0 574.118 26.1468 600.265 58.2843 600.265H741.716C773.853 600.265 800 574.118 800 541.979V142.646C800 110.509 773.853 84.3617 741.716 84.3617ZM239.163 43.6347C239.163 33.5375 247.387 25.3208 257.493 25.3208H542.518C552.615 25.3208 560.83 33.5357 560.83 43.6347V62.4914H239.163V43.6347ZM85.0013 104.141C85.0013 95.2832 92.2073 88.0772 101.065 88.0772H698.933C707.791 88.0772 714.997 95.2832 714.997 104.141V407.963C714.997 450.187 680.644 484.539 638.421 484.539H487.341L495.413 438.126H304.576L312.648 484.539H161.579C119.356 484.539 85.0031 450.187 85.0031 407.963L85.0013 104.141ZM464.993 463.714L455.201 520.017H344.79L334.998 463.714H464.993ZM774.414 541.979C774.414 560.01 759.746 574.679 741.716 574.679H58.2843C40.2555 574.679 25.5857 560.011 25.5857 541.979V142.646C25.5857 124.617 40.2537 109.947 58.2843 109.947H59.4174V407.963C59.4174 464.295 105.247 510.125 161.579 510.125H317.099L323.268 545.601H476.721L482.89 510.125H638.421C694.753 510.125 740.583 464.295 740.583 407.963V109.947H741.716C759.744 109.947 774.414 124.615 774.414 142.646V541.979Z" fill="#002090"/>
    </g>
    <defs>
        <clipPath id="clip0_213_5">
            <rect width="800" height="600" fill="white"/>
        </clipPath>
    </defs>
</svg>