<svg width="1132" height="1132" viewBox="0 0 1132 1132" fill="none"
    xmlns="http://www.w3.org/2000/svg">
    <g clip-path="url(#clip0_211_2)">
        <path fill-rule="evenodd" clip-rule="evenodd" d="M353.868 919.553H495.289L636.711 778.132L753.87 778.133C859.953 778.13 961.696 735.989 1036.71 660.975L1131.69 566L1036.71 471.025C961.697 396.012 859.954 353.868 753.868 353.868L636.711 353.868L495.289 212.447H353.868V919.553ZM689.744 619.033C719.032 648.321 766.52 648.322 795.81 619.033C825.099 589.744 825.098 542.255 795.81 512.967C766.52 483.678 719.033 483.678 689.744 512.967C660.454 542.256 660.454 589.744 689.744 619.033Z" fill="#282794"/>
        <path d="M253.869 660.865L253.87 471.136L35.6699 530.645V601.355L253.869 660.865Z" fill="#282794"/>
    </g>
    <defs>
        <clipPath id="clip0_211_2">
            <rect width="800" height="800" fill="white" transform="translate(566 0.314575) rotate(45)"/>
        </clipPath>
    </defs>
</svg>