<svg width="12" height="12" viewBox="0 0 12 12" fill="none"
    xmlns="http://www.w3.org/2000/svg">
    <g clip-path="url(#clip0_115_91)">
        <path d="M3.7294 11.5723H8.23644C9.82991 11.5723 10.6266 11.5723 11.1217 11.0842C11.6167 10.596 11.6167 9.81032 11.6167 8.23899V7.68344C11.6167 6.1121 11.6167 5.32643 11.1217 4.83827C10.6888 4.41138 10.0252 4.3578 8.79982 4.35107M3.16602 4.35107C1.94065 4.3578 1.27704 4.41139 0.844152 4.83826C0.349121 5.32644 0.349121 6.1121 0.349121 7.68344V8.23899C0.349121 9.81032 0.349121 10.596 0.844152 11.0842C1.01305 11.2507 1.21708 11.3604 1.47588 11.4328" stroke="white" stroke-width="2" stroke-linecap="round"/>
        <path d="M5.98311 0.46106V7.68328M5.98311 7.68328L4.29297 5.73884M5.98311 7.68328L7.67325 5.73884" stroke="white" stroke-width="2" stroke-linecap="round" stroke-linejoin="round"/>
    </g>
    <defs>
        <clipPath id="clip0_115_91">
            <rect width="12" height="12" fill="white"/>
        </clipPath>
    </defs>
</svg>