<svg width="16" height="16" viewBox="0 0 16 16" fill="none"
    xmlns="http://www.w3.org/2000/svg">
    <g clip-path="url(#clip0_3_2)">
        <path d="M2.03113 1.47572C2.07707 0.728259 2.2712 0.403223 2.82791 0.142209C3.42693 -0.138724 4.37169 -0.00798623 5.48339 0.509774C5.96222 0.732888 6.01098 0.737431 6.85014 0.638478C7.96557 0.5069 9.40154 0.507365 10.4311 0.639682C11.2096 0.739746 11.2607 0.734746 11.7407 0.511167C13.3187 -0.223782 14.5645 -0.175694 15.0157 0.637549C15.2408 1.04348 15.2826 2.09678 15.1081 2.96553C15.0112 3.44716 15.0215 3.50729 15.2547 3.82334C16.8955 6.04718 15.7133 9.6519 12.9017 10.9971C12.6865 11.1001 12.5052 11.1638 12.3574 11.2157C11.9037 11.375 11.766 11.4234 11.9327 12.1569C12.0131 12.5097 12.1098 13.3868 12.1478 14.1062C12.2165 15.4065 12.2155 15.4156 11.9675 15.6809C11.63 16.0417 11.1436 16.0478 10.8139 15.6953C10.5989 15.4654 10.578 15.3569 10.578 14.47C10.578 13.1593 10.4217 12.2881 10.0527 11.5416C9.61377 10.6532 9.93914 10.3219 10.9428 10.1234C12.338 9.84738 13.4276 9.05551 14.0349 7.8763C14.6124 6.75535 14.6994 5.2063 13.6554 4.2642C13.3585 3.93972 13.3379 3.64581 13.5499 2.75956C13.6291 2.42832 13.6955 2.00098 13.6975 1.80983C13.7005 1.50796 13.6706 1.46237 13.469 1.46237C13.3414 1.46237 12.854 1.63305 12.386 1.84161L11.639 2.1746C11.5711 2.20487 11.4951 2.21651 11.4202 2.2086C9.52076 2.00808 7.71594 2.00498 5.80724 2.20938C5.73201 2.21743 5.65569 2.2058 5.58754 2.17538L4.84095 1.84217C4.3729 1.63323 3.88551 1.46237 3.75797 1.46237C3.46309 1.46237 3.45866 1.6626 3.72744 2.85221C3.89163 3.57874 4.00211 3.74063 3.52747 4.32155C2.81602 5.19233 2.63831 6.27363 3.01983 7.40972C3.50067 8.84138 4.67815 9.80856 6.33356 10.1312C7.33149 10.3258 7.59231 10.5796 7.21125 11.6321C6.91129 12.4603 6.72162 12.6738 6.2857 12.6738C5.69918 12.6738 5.33177 12.2065 5.53396 11.7175C5.62302 11.5019 5.59653 11.4789 5.04708 11.2946C3.36981 10.7322 2.08694 9.47158 1.50042 7.80932C1.04708 6.52463 1.24655 4.85247 1.97381 3.84178C2.22143 3.49765 2.22527 3.46847 2.10971 2.80968C2.04433 2.43675 2.00897 1.83652 2.03113 1.47572Z" fill="white"/>
        <path d="M1.44536 10.8737C1.20367 10.5403 0.713829 10.4502 0.35128 10.6725C-0.0112601 10.8948 -0.109232 11.3453 0.132464 11.6787C0.310902 11.9249 0.524369 12.1272 0.705647 12.2938C0.739067 12.3246 0.771541 12.3543 0.803249 12.3832C0.955099 12.522 1.08917 12.6445 1.22383 12.7899C1.52167 13.1114 1.8188 13.5444 1.98767 14.321C2.06289 14.6669 2.33322 14.8533 2.48301 14.9347C2.64546 15.0229 2.82295 15.0749 2.96901 15.1088C3.26779 15.1781 3.6305 15.2141 3.97472 15.2351C4.3526 15.2582 4.76204 15.2656 5.12817 15.2677C5.12844 15.6681 5.48156 15.9928 5.91712 15.9928C6.35285 15.9928 6.70607 15.6679 6.70607 15.2672V14.5415C6.70607 14.1408 6.35285 13.8159 5.91712 13.8159C5.84274 13.8159 5.76228 13.8161 5.67705 13.8164C5.21404 13.8177 4.61053 13.8194 4.07901 13.787C3.8227 13.7714 3.61201 13.7493 3.4575 13.7222C3.21956 12.8632 2.83518 12.2916 2.42501 11.8487C2.24369 11.653 2.05594 11.4818 1.90322 11.3425C1.87463 11.3164 1.84726 11.2915 1.82139 11.2677C1.64518 11.1056 1.52992 10.9904 1.44536 10.8737Z" fill="white"/>
    </g>
    <defs>
        <clipPath id="clip0_3_2">
            <rect width="16" height="16" fill="white"/>
        </clipPath>
    </defs>
</svg>