<svg width="18" height="18" viewBox="0 0 18 18" fill="none"
    xmlns="http://www.w3.org/2000/svg">
    <g clip-path="url(#clip0_6_24149)">
        <path d="M4.50411 5.73027C5.1813 5.73027 5.73027 5.1813 5.73027 4.50411C5.73027 3.82692 5.1813 3.27795 4.50411 3.27795C3.82692 3.27795 3.27795 3.82692 3.27795 4.50411C3.27795 5.1813 3.82692 5.73027 4.50411 5.73027Z" fill="white"/>
        <path d="M3.27795 7.36517C3.27795 6.91371 3.64394 6.54773 4.09539 6.54773H4.91283C5.36429 6.54773 5.73027 6.9137 5.73027 7.36517V13.9047C5.73027 14.3561 5.36429 14.7221 4.91283 14.7221H4.09539C3.64394 14.7221 3.27795 14.3561 3.27795 13.9047V7.36517Z" fill="white"/>
        <path d="M8.18255 14.7221H8.99999C9.45146 14.7221 9.81743 14.3561 9.81743 13.9047V10.2262C9.81743 9.00005 12.2697 8.18261 12.2697 9.81748V13.905C12.2697 14.3565 12.6357 14.7221 13.0872 14.7221H13.9046C14.3561 14.7221 14.7221 14.3561 14.7221 13.9047V9.00005C14.7221 7.36517 13.4959 6.54773 11.861 6.54773C10.2261 6.54773 9.81743 7.77389 9.81743 7.77389V7.36517C9.81743 6.9137 9.45146 6.54773 8.99999 6.54773H8.18255C7.73108 6.54773 7.36511 6.91371 7.36511 7.36517V13.9047C7.36511 14.3561 7.73108 14.7221 8.18255 14.7221Z" fill="white"/>
        <path fill-rule="evenodd" clip-rule="evenodd" d="M15.5395 0.00817871C16.8939 0.00817871 17.9918 1.10612 17.9918 2.46049V15.5395C17.9918 16.8939 16.8939 17.9918 15.5395 17.9918H2.46049C1.10612 17.9918 0.00817871 16.8939 0.00817871 15.5395V2.46049C0.00817871 1.10612 1.10612 0.00817871 2.46049 0.00817871H15.5395ZM15.5395 1.64306C15.991 1.64306 16.357 2.00904 16.357 2.46049V15.5395C16.357 15.991 15.991 16.357 15.5395 16.357H2.46049C2.00904 16.357 1.64306 15.991 1.64306 15.5395V2.46049C1.64306 2.00904 2.00904 1.64306 2.46049 1.64306H15.5395Z" fill="white"/>
    </g>
    <defs>
        <clipPath id="clip0_6_24149">
            <rect width="18" height="18" fill="white"/>
        </clipPath>
    </defs>
</svg>