<svg width="88" height="110" viewBox="0 0 88 110" fill="none"
    xmlns="http://www.w3.org/2000/svg">
    <g clip-path="url(#clip0_11_4)">
        <path d="M27.8408 87.9018H46.9533C56.8753 87.9018 62.8373 82.8855 62.8373 74.665C62.8373 68.5769 58.6518 64.0799 52.3653 63.428V62.8756C56.9413 62.1021 60.5163 57.7377 60.5163 52.843C60.5163 45.661 55.2638 41.1862 46.5353 41.1862H27.8408V87.9018ZM35.0623 60.9696V47.3405H44.8523C50.2038 47.3405 53.3333 49.8652 53.3333 54.1744C53.3333 58.6051 50.0113 60.9696 43.6313 60.9696H35.0623ZM35.0623 81.753V66.6985H45.0833C51.8813 66.6985 55.4618 69.2564 55.4618 74.1456C55.4618 79.0956 52.0133 81.753 45.5013 81.753H35.0623Z" fill="white"/>
        <path d="M0 43.7054C0 37.8446 2.31785 32.2238 6.44365 28.0796C10.5695 23.9354 16.1652 21.6072 22 21.6072H66C71.8348 21.6072 77.4306 23.9354 81.5564 28.0796C85.6822 32.2238 88 37.8446 88 43.7054V87.9018C88 93.7626 85.6822 99.3834 81.5564 103.528C77.4306 107.672 71.8348 110 66 110H22C16.1652 110 10.5695 107.672 6.44365 103.528C2.31785 99.3834 0 93.7626 0 87.9018V43.7054ZM22 27.1317C17.6239 27.1317 13.4271 28.8779 10.3327 31.986C7.23839 35.0942 5.5 39.3098 5.5 43.7054V87.9018C5.5 92.2974 7.23839 96.513 10.3327 99.6212C13.4271 102.729 17.6239 104.475 22 104.475H66C70.3761 104.475 74.5729 102.729 77.6673 99.6212C80.7616 96.513 82.5 92.2974 82.5 87.9018V43.7054C82.5 39.3098 80.7616 35.0942 77.6673 31.986C74.5729 28.8779 70.3761 27.1317 66 27.1317H22Z" fill="white"/>
        <path d="M4.92285 6.20215C4.92285 6.20215 5.014 6.19889 5.19629 6.19238C5.37858 6.18262 5.61784 6.17122 5.91406 6.1582C6.21029 6.14518 6.53255 6.13379 6.88086 6.12402C7.22917 6.111 7.57259 6.10124 7.91113 6.09473C8.24967 6.08496 8.54753 6.08008 8.80469 6.08008C9.77148 6.08008 10.5348 6.15495 11.0947 6.30469C11.6579 6.45117 12.0599 6.66113 12.3008 6.93457C12.5417 7.20475 12.6621 7.52702 12.6621 7.90137C12.6621 8.25944 12.5677 8.56055 12.3789 8.80469C12.1934 9.04557 11.9085 9.25391 11.5244 9.42969C11.7946 9.52083 12.0534 9.65104 12.3008 9.82031C12.5482 9.98958 12.7516 10.2256 12.9111 10.5283C13.0706 10.8278 13.1504 11.2249 13.1504 11.7197C13.1504 12.1755 13.056 12.5514 12.8672 12.8477C12.6816 13.1439 12.4326 13.3783 12.1201 13.5508C11.8076 13.7201 11.4593 13.8454 11.0752 13.9268C10.6911 14.0049 10.3005 14.0553 9.90332 14.0781C9.50618 14.1009 9.13184 14.1123 8.78027 14.1123C8.66634 14.1123 8.47917 14.109 8.21875 14.1025C7.96159 14.096 7.66862 14.0879 7.33984 14.0781C7.01432 14.0684 6.6888 14.057 6.36328 14.0439C6.03776 14.0309 5.74479 14.0179 5.48438 14.0049C5.22721 13.9951 5.04004 13.987 4.92285 13.9805V6.20215ZM7.97461 9.77148C8.2513 9.66406 8.5166 9.55013 8.77051 9.42969C9.02767 9.30599 9.23763 9.16439 9.40039 9.00488C9.56315 8.84538 9.64453 8.65658 9.64453 8.43848C9.64453 8.29525 9.58919 8.18945 9.47852 8.12109C9.37109 8.05273 9.26204 8.01855 9.15137 8.01855C9.04069 8.01855 8.91862 8.04297 8.78516 8.0918C8.65169 8.13737 8.52474 8.19108 8.4043 8.25293C8.28385 8.31478 8.18294 8.37012 8.10156 8.41895C8.02344 8.46777 7.98112 8.49544 7.97461 8.50195V9.77148ZM9.90332 10.9678C9.90332 10.818 9.85612 10.7122 9.76172 10.6504C9.67057 10.5885 9.55664 10.5576 9.41992 10.5576C9.27344 10.5576 9.10905 10.5951 8.92676 10.6699C8.74447 10.7448 8.56868 10.8294 8.39941 10.9238C8.23014 11.0182 8.08854 11.0931 7.97461 11.1484V12.3789L8.22852 12.2812C8.56706 12.1543 8.86165 12.0355 9.1123 11.9248C9.36296 11.8109 9.55664 11.6807 9.69336 11.5342C9.83333 11.3844 9.90332 11.1956 9.90332 10.9678ZM18.1748 14.1904C17.6247 14.1904 17.0908 14.0944 16.5732 13.9023C16.0589 13.707 15.5951 13.4287 15.1816 13.0674C14.7715 12.7061 14.446 12.2731 14.2051 11.7686C13.9642 11.2607 13.8438 10.6943 13.8438 10.0693C13.8438 9.45736 13.9561 8.90072 14.1807 8.39941C14.4085 7.89811 14.7227 7.4668 15.123 7.10547C15.5234 6.74414 15.984 6.46745 16.5049 6.27539C17.029 6.08008 17.5856 5.98242 18.1748 5.98242C18.7933 5.98242 19.3695 6.07682 19.9033 6.26562C20.4404 6.45117 20.9092 6.72298 21.3096 7.08105C21.7132 7.43587 22.0273 7.86882 22.252 8.37988C22.4798 8.8877 22.5938 9.46387 22.5938 10.1084C22.5938 10.7334 22.4749 11.2982 22.2373 11.8027C21.9997 12.304 21.6742 12.7321 21.2607 13.0869C20.8473 13.4417 20.3753 13.7152 19.8447 13.9072C19.3174 14.096 18.7607 14.1904 18.1748 14.1904ZM17.833 11.6514C18.0055 11.6514 18.1895 11.5684 18.3848 11.4023C18.5801 11.2331 18.764 11.0182 18.9365 10.7578C19.109 10.4974 19.249 10.2223 19.3564 9.93262C19.4671 9.6429 19.5225 9.37598 19.5225 9.13184C19.5225 8.90397 19.4622 8.71517 19.3418 8.56543C19.2214 8.41569 19.0179 8.34082 18.7314 8.34082C18.5557 8.34082 18.3669 8.42383 18.165 8.58984C17.9665 8.7526 17.7793 8.96419 17.6035 9.22461C17.431 9.48177 17.2894 9.75521 17.1787 10.0449C17.068 10.3314 17.0127 10.5967 17.0127 10.8408C17.0127 11.0752 17.0745 11.2689 17.1982 11.4219C17.3252 11.5749 17.5368 11.6514 17.833 11.6514ZM27.6572 14.1904C27.1071 14.1904 26.5732 14.0944 26.0557 13.9023C25.5413 13.707 25.0775 13.4287 24.6641 13.0674C24.2539 12.7061 23.9284 12.2731 23.6875 11.7686C23.4466 11.2607 23.3262 10.6943 23.3262 10.0693C23.3262 9.45736 23.4385 8.90072 23.6631 8.39941C23.891 7.89811 24.2051 7.4668 24.6055 7.10547C25.0059 6.74414 25.4665 6.46745 25.9873 6.27539C26.5114 6.08008 27.068 5.98242 27.6572 5.98242C28.2757 5.98242 28.8519 6.07682 29.3857 6.26562C29.9229 6.45117 30.3916 6.72298 30.792 7.08105C31.1956 7.43587 31.5098 7.86882 31.7344 8.37988C31.9622 8.8877 32.0762 9.46387 32.0762 10.1084C32.0762 10.7334 31.9574 11.2982 31.7197 11.8027C31.4821 12.304 31.1566 12.7321 30.7432 13.0869C30.3298 13.4417 29.8577 13.7152 29.3271 13.9072C28.7998 14.096 28.2432 14.1904 27.6572 14.1904ZM27.3154 11.6514C27.488 11.6514 27.6719 11.5684 27.8672 11.4023C28.0625 11.2331 28.2464 11.0182 28.4189 10.7578C28.5915 10.4974 28.7314 10.2223 28.8389 9.93262C28.9495 9.6429 29.0049 9.37598 29.0049 9.13184C29.0049 8.90397 28.9447 8.71517 28.8242 8.56543C28.7038 8.41569 28.5003 8.34082 28.2139 8.34082C28.0381 8.34082 27.8493 8.42383 27.6475 8.58984C27.4489 8.7526 27.2617 8.96419 27.0859 9.22461C26.9134 9.48177 26.7718 9.75521 26.6611 10.0449C26.5505 10.3314 26.4951 10.5967 26.4951 10.8408C26.4951 11.0752 26.557 11.2689 26.6807 11.4219C26.8076 11.5749 27.0192 11.6514 27.3154 11.6514ZM32.7256 6.20215H40.1084V8.73145H37.9355V14H34.8984V8.73145H32.7256V6.20215ZM40.8652 11.4121C40.8848 11.4154 40.9759 11.4447 41.1387 11.5C41.3047 11.5521 41.5049 11.6123 41.7393 11.6807C41.9736 11.7458 42.208 11.8044 42.4424 11.8564C42.68 11.9053 42.8818 11.9297 43.0479 11.9297C43.1911 11.9297 43.3083 11.9085 43.3994 11.8662C43.4906 11.8239 43.5361 11.7458 43.5361 11.6318C43.5361 11.5081 43.471 11.3958 43.3408 11.2949C43.2106 11.194 43.043 11.0898 42.8379 10.9824C42.6361 10.875 42.4196 10.7529 42.1885 10.6162C41.9606 10.4795 41.7441 10.3151 41.5391 10.123C41.3372 9.93099 41.1712 9.7015 41.041 9.43457C40.9108 9.16439 40.8457 8.84212 40.8457 8.46777C40.8457 8.00879 40.9417 7.62142 41.1338 7.30566C41.3258 6.98665 41.583 6.73112 41.9053 6.53906C42.2308 6.34375 42.5954 6.20215 42.999 6.11426C43.4059 6.02637 43.8226 5.98242 44.249 5.98242C44.6104 5.98242 44.9521 6.00195 45.2744 6.04102C45.5967 6.08008 45.8685 6.1224 46.0898 6.16797C46.3145 6.21354 46.4561 6.24447 46.5146 6.26074V8.50195C46.5146 8.50195 46.4463 8.4873 46.3096 8.45801C46.1761 8.42871 46.0068 8.39616 45.8018 8.36035C45.5999 8.32454 45.39 8.29199 45.1719 8.2627C44.957 8.2334 44.7682 8.21875 44.6055 8.21875C44.4557 8.21875 44.3434 8.24479 44.2686 8.29688C44.1937 8.34896 44.1562 8.41081 44.1562 8.48242C44.1562 8.54102 44.1888 8.60612 44.2539 8.67773C44.319 8.74609 44.3971 8.7998 44.4883 8.83887C44.8301 8.98861 45.1523 9.1416 45.4551 9.29785C45.7578 9.4541 46.0247 9.63477 46.2559 9.83984C46.487 10.0449 46.6676 10.2956 46.7979 10.5918C46.9313 10.8848 46.998 11.2445 46.998 11.6709C46.998 12.1787 46.8695 12.6214 46.6123 12.999C46.3584 13.3766 45.9906 13.6696 45.5088 13.8779C45.0303 14.0863 44.4525 14.1904 43.7754 14.1904C43.1927 14.1904 42.7126 14.1628 42.335 14.1074C41.9574 14.0521 41.6611 13.9902 41.4463 13.9219C41.2314 13.8503 41.0801 13.7868 40.9922 13.7314C40.9076 13.6761 40.8652 13.6484 40.8652 13.6484V11.4121ZM47.7158 6.20215H55.0986V8.73145H52.9258V14H49.8887V8.73145H47.7158V6.20215ZM55.9678 14V6.20215C55.9678 6.20215 56.0687 6.19564 56.2705 6.18262C56.4756 6.16634 56.7425 6.14681 57.0713 6.12402C57.4033 6.10124 57.7646 6.08008 58.1553 6.06055C58.5492 6.03776 58.9382 6.01986 59.3223 6.00684C59.7096 5.99056 60.0547 5.98242 60.3574 5.98242C60.9889 5.98242 61.5244 6.06543 61.9639 6.23145C62.4033 6.39421 62.7581 6.61068 63.0283 6.88086C63.2985 7.15104 63.4954 7.44889 63.6191 7.77441C63.7461 8.09993 63.8096 8.42546 63.8096 8.75098C63.8096 9.32064 63.6647 9.81055 63.375 10.2207C63.0853 10.6276 62.7158 10.9645 62.2666 11.2314L64.3857 14H60.5283L59.1562 11.7393V14H55.9678ZM59.1367 10.3184C59.7682 10.084 60.2207 9.83008 60.4941 9.55664C60.7708 9.27995 60.9092 8.98372 60.9092 8.66797C60.9092 8.4043 60.8604 8.22363 60.7627 8.12598C60.665 8.02832 60.543 7.97949 60.3965 7.97949C60.3021 7.97949 60.2044 7.99577 60.1035 8.02832C60.0026 8.05762 59.8968 8.09505 59.7861 8.14062L59.1367 8.40918V10.3184ZM64.8936 14L68.7705 6.59766C68.8649 6.41862 69.0114 6.28027 69.21 6.18262C69.4085 6.08171 69.6152 6.03125 69.8301 6.03125C70.0221 6.03125 70.2093 6.0752 70.3916 6.16309C70.5771 6.25098 70.7204 6.38607 70.8213 6.56836L74.9814 14H71.0215L70.7139 13.2285H68.6045L68.3408 14H64.8936ZM68.8438 11.6807H70.4209L69.6738 9.57129L68.8438 11.6807ZM79.6055 5.98242C80.5137 5.98242 81.2493 6.08984 81.8125 6.30469C82.3789 6.51953 82.7939 6.8597 83.0576 7.3252C83.3213 7.79069 83.4531 8.40267 83.4531 9.16113C83.4531 9.66895 83.3571 10.1344 83.165 10.5576C82.9762 10.9775 82.7142 11.3405 82.3789 11.6465C82.0436 11.9525 81.653 12.1901 81.207 12.3594C80.7643 12.5254 80.2891 12.6084 79.7812 12.6084C79.651 12.6084 79.516 12.6051 79.376 12.5986C79.2393 12.5921 79.0846 12.5889 78.9121 12.5889V14H75.7236V6.22168C76.4821 6.14681 77.182 6.08822 77.8232 6.0459C78.4645 6.00358 79.0586 5.98242 79.6055 5.98242ZM80.123 8.00879C80.0091 8.00879 79.8805 8.03809 79.7373 8.09668C79.5973 8.15527 79.4622 8.22363 79.332 8.30176C79.2051 8.37663 79.0993 8.44336 79.0146 8.50195C78.9333 8.56055 78.8926 8.58984 78.8926 8.58984V10.4307L79.4639 10.1523C79.7926 9.98958 80.0758 9.78939 80.3135 9.55176C80.5544 9.31087 80.6748 9 80.6748 8.61914C80.6748 8.45638 80.626 8.31478 80.5283 8.19434C80.4339 8.07064 80.2988 8.00879 80.123 8.00879Z" fill="white"/>
    </g>
    <defs>
        <clipPath id="clip0_11_4">
            <rect width="88" height="110" fill="white"/>
        </clipPath>
    </defs>
</svg>