<svg width="78" height="110" viewBox="0 0 78 110" fill="none"
    xmlns="http://www.w3.org/2000/svg">
    <g clip-path="url(#clip0_8_24189)">
        <path d="M27.8952 10.0294V14.7598H15.8569V0.107666H27.8952V5.29185H21.0163V10.0294H27.8952ZM40.2702 5.29185H45.0793V0.107666H33.0398C33.0398 0.107666 33.0398 2.70985 33.0398 5.29185C34.6505 6.91026 35.4903 7.68499 37.8199 10.0257C36.4581 10.0257 33.0398 10.0302 33.0398 10.0302V14.7598H45.0793V10.0294L40.2702 5.29185ZM57.3338 5.29185H62.1425V0.107666H50.1034C50.1034 0.107666 50.1034 2.70985 50.1034 5.29185C51.7136 6.91026 52.5539 7.68499 54.8832 10.0257C53.5223 10.0257 50.1034 10.0302 50.1034 10.0302V14.7598H62.1427V10.0294L57.3338 5.29185ZM77.9988 21.7233L70.6857 101.32L38.9997 109.892L7.31305 101.32L0.000976562 21.7233H77.9988ZM63.2631 37.9079H38.971H14.2497L15.4318 47.5198H38.971H40.2933L38.971 48.0728L16.2922 57.564L17.0444 66.9591L38.971 67.0306L50.723 67.0682L49.9702 79.596L38.971 82.7078V82.6979L38.8808 82.7228L28.2576 80.0282L27.6129 72.252H27.5779H17.7242H17.6895L18.9793 87.2644L38.971 93.2046V93.1939L39.007 93.2046L58.8918 87.3725L61.4719 57.5642H38.971H38.9155L38.971 57.5401L62.2953 47.52L63.2631 37.9079Z" fill="white"/>
    </g>
    <defs>
        <clipPath id="clip0_8_24189">
            <rect width="78" height="110" fill="white"/>
        </clipPath>
    </defs>
</svg>