<svg width="51" height="110" viewBox="0 0 51 110" fill="none"
    xmlns="http://www.w3.org/2000/svg">
    <g clip-path="url(#clip0_11_36)">
        <path d="M0.0522461 28.8096C0.0522461 23.2045 4.72167 18.6608 10.4817 18.6608C16.2419 18.6608 20.9111 23.2045 20.9111 28.8096C20.9111 32.5661 18.8138 35.8459 15.6964 37.6007V74.6802H25.0386C30.7988 74.6802 35.468 70.136 35.468 64.5314V58.1589C32.2912 56.4199 30.1454 53.1077 30.1454 49.3079C30.1454 43.7028 34.8146 39.1591 40.5748 39.1591C46.3345 39.1591 51.0043 43.7028 51.0043 49.3079C51.0043 53.0207 48.9549 56.2677 45.8975 58.0371V64.5314C45.8975 75.7412 36.5584 84.829 25.0386 84.829H15.6964V91.0603C18.8138 92.8151 20.9111 96.0947 20.9111 99.8512C20.9111 105.456 16.2419 110 10.4817 110C4.72167 110 0.0522461 105.456 0.0522461 99.8512C0.0522461 96.0947 2.14961 92.8151 5.26697 91.0603V37.6007C2.14961 35.8459 0.0522461 32.5661 0.0522461 28.8096Z" fill="white"/>
        <path d="M21.6669 10.8633C21.6669 10.8633 21.5371 10.8838 21.2773 10.9248C21.0221 10.9658 20.6962 11.0114 20.2997 11.0615C19.9033 11.1162 19.4885 11.1641 19.0556 11.2051C18.6227 11.2461 18.2285 11.2666 17.873 11.2666C16.8977 11.2666 15.9931 11.1322 15.1591 10.8633C14.3297 10.5944 13.6051 10.207 12.9853 9.70117C12.3701 9.19531 11.8915 8.58691 11.5497 7.87598C11.208 7.16504 11.0371 6.36751 11.0371 5.4834C11.0371 4.59928 11.2216 3.80632 11.5908 3.10449C11.9599 2.39811 12.4772 1.79883 13.1425 1.30664C13.8079 0.809896 14.5895 0.431641 15.4872 0.171875C16.3896 -0.0924479 17.3717 -0.224609 18.4335 -0.224609C19.0351 -0.224609 19.5341 -0.19043 19.9306 -0.12207C20.3271 -0.0582682 20.6233 0.0078125 20.8193 0.0761719C21.0198 0.144531 21.1246 0.178711 21.1337 0.178711V3.48047C20.4638 3.27539 19.844 3.17285 19.2744 3.17285C18.5452 3.17285 17.9391 3.30957 17.456 3.58301C16.9775 3.85189 16.6197 4.19368 16.3828 4.6084C16.1458 5.01855 16.0273 5.43555 16.0273 5.85938C16.0273 6.35156 16.1617 6.75488 16.4306 7.06934C16.704 7.38379 17.0777 7.54102 17.5517 7.54102C17.6565 7.54102 17.7613 7.53418 17.8662 7.52051C17.971 7.50228 18.0621 7.47721 18.1396 7.44531C18.1487 7.27669 18.1533 7.06022 18.1533 6.7959C18.1533 6.52702 18.1533 6.19661 18.1533 5.80469C19.0283 5.80469 19.705 5.80469 20.1835 5.80469C20.6666 5.80013 21.013 5.79785 21.2226 5.79785C21.4322 5.79785 21.5576 5.79785 21.5986 5.79785C21.6441 5.79329 21.6669 5.79102 21.6669 5.79102V10.8633ZM27.4843 11H23.2324V0.0830078H27.4843V11ZM28.7011 0.0830078H39.0371V3.62402H35.9951V11H31.7431V3.62402H28.7011V0.0830078Z" fill="white"/>
    </g>
    <defs>
        <clipPath id="clip0_11_36">
            <rect width="51" height="110" fill="white"/>
        </clipPath>
    </defs>
</svg>