<svg width="92" height="110" viewBox="0 0 92 110" fill="none"
    xmlns="http://www.w3.org/2000/svg">
    <g clip-path="url(#clip0_11_29)">
        <path d="M11.6785 26.7883C11.9427 22.5059 13.0589 20.6438 16.26 19.1484C19.7043 17.5389 25.1367 18.2879 31.529 21.2542C34.2823 22.5325 34.5626 22.5585 39.3878 21.9916C45.8015 21.2377 54.0584 21.2404 59.9781 21.9985C64.4547 22.5718 64.7486 22.5431 67.5086 21.2622C76.5821 17.0516 83.7456 17.3271 86.3396 21.9863C87.6343 24.3119 87.8747 30.3465 86.8708 35.3237C86.3142 38.083 86.3732 38.4275 87.7141 40.2382C97.1487 52.9789 90.3508 73.631 74.1841 81.338C72.947 81.9279 71.9045 82.2929 71.0548 82.5902C68.4459 83.5031 67.6538 83.7804 68.6128 87.9825C69.0746 90.0038 69.6308 95.029 69.8495 99.1505C70.2446 106.6 70.2387 106.652 68.8129 108.172C66.8722 110.239 64.075 110.274 62.1796 108.255C60.9434 106.938 60.8228 106.316 60.8228 101.234C60.8228 93.7253 59.9245 88.7341 57.8024 84.4572C55.2787 79.3675 57.1496 77.4697 62.9209 76.3323C70.9427 74.7509 77.2081 70.2141 80.7003 63.4582C84.0205 57.0362 84.5209 48.1614 78.5182 42.7639C76.8112 40.9049 76.6923 39.2211 77.9113 34.1436C78.3667 32.2459 78.7487 29.7976 78.76 28.7024C78.7773 26.973 78.6053 26.7118 77.4463 26.7118C76.7127 26.7118 73.9101 27.6896 71.219 28.8845L66.9239 30.7923C66.5333 30.9657 66.0964 31.0324 65.6655 30.987C54.7439 29.8382 44.3662 29.8205 33.3911 30.9915C32.9585 31.0377 32.5197 30.971 32.1279 30.7967L27.835 28.8877C25.1437 27.6907 22.3412 26.7118 21.6078 26.7118C19.9123 26.7118 19.8868 27.8589 21.4323 34.6744C22.3764 38.8368 23.0117 39.7643 20.2825 43.0925C16.1916 48.0814 15.1698 54.2763 17.3635 60.7852C20.1284 68.9874 26.8989 74.5285 36.4175 76.3772C42.1556 77.4918 43.6553 78.946 41.4642 84.9756C39.7394 89.7206 38.6488 90.9437 36.1423 90.9437C32.7698 90.9437 30.6572 88.2664 31.8198 85.4649C32.3319 84.2302 32.1795 84.0984 29.0202 83.0425C19.3759 79.8202 11.9994 72.5979 8.62691 63.0745C6.0202 55.7143 7.16716 46.1342 11.3489 40.3438C12.7728 38.3723 12.7948 38.2051 12.1303 34.4308C11.7544 32.2942 11.5511 28.8554 11.6785 26.7883Z" fill="white"/>
        <path d="M8.31105 80.631C6.9213 78.7207 4.10473 78.2044 2.02008 79.4782C-0.0645317 80.7515 -0.627872 83.3328 0.761881 85.243C1.7879 86.6535 3.01534 87.8122 4.05769 88.7671C4.24985 88.9433 4.43657 89.1134 4.61889 89.2792C5.49203 90.0741 6.26296 90.7758 7.03725 91.6089C8.74982 93.451 10.4583 95.932 11.4293 100.381C11.8618 102.363 13.4162 103.43 14.2775 103.897C15.2116 104.402 16.2322 104.7 17.072 104.895C18.79 105.292 20.8756 105.498 22.8549 105.618C25.0277 105.75 27.382 105.793 29.4872 105.805C29.4887 108.099 31.5192 109.959 34.0236 109.959C36.5291 109.959 38.5601 108.098 38.5601 105.802V101.644C38.5601 99.3484 36.5291 97.4873 34.0236 97.4873C33.596 97.4873 33.1333 97.4885 32.6432 97.4902C29.981 97.4976 26.5108 97.5072 23.4545 97.3218C21.9808 97.2324 20.7692 97.1056 19.8808 96.9506C18.5127 92.0288 16.3025 88.7542 13.944 86.217C12.9014 85.0958 11.8218 84.1147 10.9437 83.3165C10.7793 83.1673 10.622 83.0243 10.4732 82.8879C9.46001 81.9596 8.79723 81.2995 8.31105 80.631Z" fill="white"/>
        <path d="M28.0771 10.8633C28.0771 10.8633 27.9472 10.8838 27.6874 10.9248C27.4322 10.9658 27.1064 11.0114 26.7099 11.0615C26.3134 11.1162 25.8987 11.1641 25.4658 11.2051C25.0328 11.2461 24.6386 11.2666 24.2831 11.2666C23.3079 11.2666 22.4033 11.1322 21.5693 10.8633C20.7398 10.5944 20.0152 10.207 19.3954 9.70117C18.7802 9.19531 18.3017 8.58691 17.9599 7.87598C17.6181 7.16504 17.4472 6.36751 17.4472 5.4834C17.4472 4.59928 17.6318 3.80632 18.0009 3.10449C18.3701 2.39811 18.8873 1.79883 19.5527 1.30664C20.218 0.809896 20.9996 0.431641 21.8974 0.171875C22.7997 -0.0924479 23.7818 -0.224609 24.8437 -0.224609C25.4453 -0.224609 25.9443 -0.19043 26.3408 -0.12207C26.7372 -0.0582682 27.0335 0.0078125 27.2294 0.0761719C27.43 0.144531 27.5348 0.178711 27.5439 0.178711V3.48047C26.874 3.27539 26.2542 3.17285 25.6845 3.17285C24.9553 3.17285 24.3492 3.30957 23.8661 3.58301C23.3876 3.85189 23.0299 4.19368 22.7929 4.6084C22.5559 5.01855 22.4374 5.43555 22.4374 5.85938C22.4374 6.35156 22.5719 6.75488 22.8408 7.06934C23.1142 7.38379 23.4879 7.54102 23.9619 7.54102C24.0667 7.54102 24.1715 7.53418 24.2763 7.52051C24.3811 7.50228 24.4723 7.47721 24.5497 7.44531C24.5589 7.27669 24.5634 7.06022 24.5634 6.7959C24.5634 6.52702 24.5634 6.19661 24.5634 5.80469C25.4384 5.80469 26.1152 5.80469 26.5937 5.80469C27.0768 5.80013 27.4231 5.79785 27.6328 5.79785C27.8424 5.79785 27.9677 5.79785 28.0087 5.79785C28.0543 5.79329 28.0771 5.79102 28.0771 5.79102V10.8633ZM33.8945 11H29.6425V0.0830078H33.8945V11ZM35.1113 0.0830078H45.4472V3.62402H42.4052V11H38.1533V3.62402H35.1113V0.0830078ZM53.1855 0.0830078H57.4443V11H53.1855V6.9668L50.916 7.16504V11H46.664V0.0830078H50.916V4.02734L53.1855 3.84277V0.0830078ZM59.0165 0.0830078H63.33V6.52246C63.33 6.90983 63.4234 7.23568 63.6103 7.5C63.7971 7.75977 64.1002 7.88965 64.5195 7.88965C64.9387 7.88965 65.2418 7.75521 65.4286 7.48633C65.6155 7.21289 65.7089 6.88249 65.7089 6.49512V0.0830078H69.4892V6.64551C69.4892 8.21322 69.0563 9.37533 68.1904 10.1318C67.329 10.8883 66.0826 11.2666 64.4511 11.2666C62.6738 11.2666 61.3225 10.8883 60.3974 10.1318C59.4768 9.37533 59.0165 8.21322 59.0165 6.64551V0.0830078ZM71.0683 0.0830078C71.0683 0.0830078 71.1959 0.0784505 71.4511 0.0693359C71.7063 0.0556641 72.0413 0.0397135 72.456 0.0214844C72.8707 0.00325521 73.3219 -0.0126953 73.8095 -0.0263672C74.2971 -0.0445964 74.7779 -0.0582682 75.2519 -0.0673828C75.7259 -0.0810547 76.1428 -0.0878906 76.5029 -0.0878906C77.8564 -0.0878906 78.9251 0.0169271 79.7089 0.226562C80.4973 0.431641 81.0602 0.725586 81.3974 1.1084C81.7346 1.48665 81.9033 1.93783 81.9033 2.46191C81.9033 2.96322 81.7711 3.38477 81.5068 3.72656C81.247 4.0638 80.8482 4.35547 80.3105 4.60156C80.6887 4.72917 81.051 4.91146 81.3974 5.14844C81.7438 5.38542 82.0286 5.71582 82.2519 6.13965C82.4752 6.55892 82.5869 7.11491 82.5869 7.80762C82.5869 8.44564 82.4547 8.97201 82.1904 9.38672C81.9306 9.80143 81.582 10.1296 81.1445 10.3711C80.707 10.6081 80.2193 10.7835 79.6816 10.8975C79.1438 11.0068 78.5969 11.0775 78.041 11.1094C77.485 11.1413 76.9609 11.1572 76.4687 11.1572C76.3092 11.1572 76.0471 11.1527 75.6826 11.1436C75.3225 11.1344 74.9124 11.123 74.4521 11.1094C73.9964 11.0957 73.5406 11.0798 73.0849 11.0615C72.6292 11.0433 72.219 11.0251 71.8544 11.0068C71.4944 10.9932 71.2324 10.9818 71.0683 10.9727V0.0830078ZM75.3408 5.08008C75.7281 4.92969 76.0995 4.77018 76.455 4.60156C76.815 4.42839 77.109 4.23014 77.3369 4.00684C77.5647 3.78353 77.6786 3.51921 77.6786 3.21387C77.6786 3.01335 77.6012 2.86523 77.4462 2.76953C77.2958 2.67383 77.1432 2.62598 76.9882 2.62598C76.8333 2.62598 76.6624 2.66016 76.4755 2.72852C76.2887 2.79232 76.1109 2.86751 75.9423 2.9541C75.7737 3.04069 75.6324 3.11816 75.5185 3.18652C75.4091 3.25488 75.3499 3.29362 75.3408 3.30273V5.08008ZM78.041 6.75488C78.041 6.54525 77.9749 6.39714 77.8427 6.31055C77.7151 6.22396 77.5556 6.18066 77.3642 6.18066C77.1591 6.18066 76.929 6.23307 76.6738 6.33789C76.4186 6.44271 76.1725 6.5612 75.9355 6.69336C75.6985 6.82552 75.5003 6.93034 75.3408 7.00781V8.73047L75.6962 8.59375C76.1702 8.41602 76.5826 8.24967 76.9335 8.09473C77.2844 7.93522 77.5556 7.75293 77.747 7.54785C77.943 7.33822 78.041 7.07389 78.041 6.75488Z" fill="white"/>
    </g>
    <defs>
        <clipPath id="clip0_11_29">
            <rect width="92" height="110" fill="white"/>
        </clipPath>
    </defs>
</svg>