<svg width="78" height="110" viewBox="0 0 78 110" fill="none"
    xmlns="http://www.w3.org/2000/svg">
    <g clip-path="url(#clip0_8_24185)">
        <path d="M7.27559 0.107666H12.235V4.99665H16.7717V0.107666H21.7316V14.9123H16.7721V9.9546H12.2354V14.9123H7.27602V0.107666H7.27559ZM28.2532 5.01728H23.8874V0.107666H37.5809V5.01728H33.213V14.9123H28.2536V5.01728H28.2532ZM39.754 0.107666H44.9261L48.1067 5.30968L51.2847 0.107666H56.4575V14.9123H51.5184V7.57456L48.1065 12.8382H48.0215L44.6072 7.57456V14.9123H39.754V0.107666ZM58.9263 0.107666H63.887V10.0191H70.8616V14.9123H58.9263V0.107666ZM0.0229492 21.6833L7.11711 101.075L38.9519 109.892L70.875 101.063L77.9766 21.6831L0.0229492 21.6833ZM63.1787 40.5239L62.7345 45.4603L62.5394 47.6491H62.5073H38.9999H38.9659H25.1944L26.0863 57.6194H38.9659H38.9999H59.021H61.651L61.4128 60.2345L59.1196 85.8696L58.9728 87.5136L38.9999 93.037V93.0388L38.9551 93.0514L18.9644 87.514L17.5968 72.2256H22.1123H27.3936L28.0884 79.9913L38.9568 82.92L38.9659 82.9172V82.9164L49.8509 79.9859L50.9828 67.3572H38.9999H38.9659H17.161L14.7625 40.5239L14.5289 37.912H38.9659H38.9999H63.4124L63.1787 40.5239Z" fill="white"/>
    </g>
    <defs>
        <clipPath id="clip0_8_24185">
            <rect width="78" height="110" fill="white"/>
        </clipPath>
    </defs>
</svg>
