<svg width="89" height="110" viewBox="0 0 89 110" fill="none"
    xmlns="http://www.w3.org/2000/svg">
    <g clip-path="url(#clip0_11_68)">
        <path d="M0.0296506 64.4402C0.114015 64.0986 0.214454 63.761 0.274717 63.4193C1.23892 57.9091 5.54569 53.6489 11.0296 52.7888C18 51.6956 24.6811 56.5386 25.7859 63.4877C26.9068 70.5211 22.1139 77.1406 15.1154 78.3021C8.06065 79.4717 1.41971 74.5965 0.278735 67.756C0.214451 67.3742 0.109999 66.9964 0.0256348 66.6146C0.0256348 65.8911 0.0296506 65.1636 0.0296506 64.4402ZM78.3711 19.9325C79.0942 20.0691 79.8254 20.1575 80.5365 20.3465C83.8349 21.2186 85.9843 23.401 87.3422 26.4435C88.2742 28.5375 88.7483 30.752 88.8648 33.0389C88.9368 34.4456 88.9652 35.8563 88.9652 37.267C88.9735 56.623 88.9855 75.9791 88.9532 95.3392C88.9492 98.442 88.4028 101.484 86.8923 104.262C84.9438 107.851 81.9387 109.728 77.8207 109.8C75.2535 109.844 72.9234 109.201 70.9347 107.545C69.0746 105.994 67.9577 103.948 67.2386 101.673C66.5838 99.5955 66.2704 97.4533 66.2664 95.2829C66.2506 74.9663 66.2386 54.6497 66.2784 34.337C66.2866 31.0454 66.9131 27.8421 68.6608 24.9645C70.4124 22.0787 72.9515 20.4028 76.3382 20.0732C76.515 20.0574 76.6837 19.9888 76.8565 19.9446C77.3627 19.9446 77.8689 19.9446 78.3751 19.9446L78.3711 19.9325ZM0.0296506 33.6096C0.0296506 32.8861 0.0296506 32.1627 0.0296506 31.4392C0.0859085 31.178 0.146157 30.9208 0.194367 30.6595C1.21883 24.9564 6.14028 21.2347 11.5117 21.2467C26.6296 21.2873 41.7475 21.2588 56.8654 21.2588C57.0944 21.2588 57.3234 21.2588 57.6086 21.2588C57.6086 21.5561 57.6086 21.7893 57.6086 22.0184C57.6086 36.1817 57.6206 50.3491 57.5966 64.5125C57.5925 66.5502 57.4519 68.5919 57.2832 70.6216C57.0301 73.6279 56.335 76.5578 55.3829 79.4154C52.7514 87.2888 48.2799 93.9324 41.9684 99.3301C36.7698 103.779 30.86 106.862 24.2391 108.586C21.5313 109.29 18.7874 109.796 15.9872 109.884C13.9503 109.949 11.8933 110.077 9.87655 109.86C5.3448 109.382 1.64869 106.058 0.475577 101.653C0.286753 100.942 0.17828 100.214 0.0296318 99.495C0.0296318 98.9524 0.0296318 98.4098 0.0296318 97.8673C0.113996 97.4452 0.198369 97.0232 0.274699 96.6012C1.28711 91.1071 6.22865 87.1764 11.9978 87.3573C13.7133 87.4098 15.4729 87.301 17.1563 86.9835C22.3831 85.9908 26.6938 83.3783 30.0444 79.2387C33.166 75.3803 34.8373 70.9512 34.8775 65.9836C34.9338 58.8778 34.8933 51.768 34.8933 44.6622C34.8933 43.8985 34.8932 43.8945 34.1259 43.8945C26.8582 43.8945 19.5906 43.9028 12.3269 43.8863C11.3748 43.8822 10.4065 43.8382 9.47447 43.6612C4.94272 42.7971 1.96977 40.1164 0.519445 35.7556C0.290445 35.0643 0.190346 34.325 0.0296506 33.6096Z" fill="white"/>
        <path d="M12.096 11H7.84404V0.0830078H12.096V11ZM13.764 0.0830078H14.8714L20.8323 4.33496V0.0830078H24.681V11H23.2112L17.5989 7.24707V11H13.764V0.0830078ZM25.9183 0.0830078H36.2542V3.62402H33.2122V11H28.9602V3.62402H25.9183V0.0830078ZM37.471 0.0830078H45.3392V3.22754H41.7229V4.12305H45.3255V6.80273H41.7229V7.83496H45.5784V11H37.471V0.0830078ZM47.2054 0.0830078H51.4573V7.71191H55.1282V11H47.2054V0.0830078ZM56.1878 0.0830078H60.4397V7.71191H64.1106V11H56.1878V0.0830078ZM69.4222 11H65.1702V0.0830078H69.4222V11ZM75.219 11.2666C74.2666 11.2666 73.4235 11.123 72.6897 10.8359C71.956 10.5488 71.3818 10.0999 70.9671 9.48926C70.5524 8.87858 70.345 8.09017 70.345 7.12402V6.08496L74.139 5.56543V6.61816C74.139 7.06022 74.2301 7.38835 74.4124 7.60254C74.5992 7.81217 74.8112 7.91699 75.0481 7.91699C75.2942 7.91699 75.5175 7.7985 75.7181 7.56152C75.9186 7.31999 76.0188 6.99186 76.0188 6.57715V0.0830078H80.3733V5.36035C80.3733 6.48145 80.2412 7.42025 79.9769 8.17676C79.7171 8.93327 79.3525 9.53939 78.8831 9.99512C78.4137 10.4463 77.8668 10.7721 77.2425 10.9727C76.6181 11.1686 75.9436 11.2666 75.219 11.2666Z" fill="white"/>
    </g>
    <defs>
        <clipPath id="clip0_11_68">
            <rect width="89" height="110" fill="white"/>
        </clipPath>
    </defs>
</svg>