<svg width="67" height="110" viewBox="0 0 67 110" fill="none"
    xmlns="http://www.w3.org/2000/svg">
    <g clip-path="url(#clip0_9_24206)">
        <path d="M22.4842 56.0343C21.6451 54.1759 21.2689 52.0083 21.91 50.0392C22.5509 48.026 23.9865 46.4111 25.4222 44.9066C29.4189 40.902 34.3446 37.9598 38.2537 33.8895C40.4179 31.6549 42.2066 28.978 42.8248 25.9027C43.333 23.6463 43.0902 21.3235 42.6266 19.0889C44.7026 21.4561 45.3873 24.8409 44.7908 27.894C44.1506 31.3229 42.2506 34.3536 40.0202 36.964C38.2315 39.066 36.1771 40.9242 34.0351 42.6502C31.5395 44.6634 29.0882 46.8312 27.5204 49.6631C26.1945 51.9635 25.8853 54.7953 26.7911 57.2954C28.2711 61.5869 31.716 64.7728 33.5936 68.8211C31.5171 66.9847 29.4856 65.0823 27.5856 63.0694C25.5987 60.9455 23.7211 58.6893 22.4842 56.0343ZM33.7478 52.6714C33.3726 56.1891 35.2051 59.5074 37.3922 62.1182C38.4519 63.2905 39.3575 64.7286 39.4013 66.3659C39.4459 68.5552 38.2097 70.5913 36.6184 72.0287C36.9944 71.9849 37.2593 71.6527 37.5686 71.4759C39.9539 69.9493 42.2502 68.0247 43.4208 65.3926C44.1939 63.6005 44.0173 61.4764 43.0017 59.8169C41.8086 57.8702 40.2409 56.1445 39.3135 54.021C38.8048 52.8264 38.6282 51.4328 39.048 50.1718C39.6006 48.4685 40.793 47.0746 42.052 45.8578C45.5191 42.5619 49.7153 40.216 53.7352 37.6502C48.6553 39.1101 43.642 41.1235 39.3575 44.2873C36.6408 46.3226 34.1235 49.1541 33.7478 52.6714ZM57.8879 69.3081C60.2953 69.441 62.6577 71.2105 63.0999 73.6443C63.5197 75.746 62.5041 77.8253 61.2004 79.418C59.0579 81.9841 56.1644 83.8206 53.2501 85.3914C52.9622 85.5676 52.7195 85.789 52.4986 86.0327C56.3417 85.0591 60.1841 83.5997 63.2986 81.0995C65.0207 79.6614 66.5447 77.7583 66.8763 75.4797C67.1856 73.5111 66.3688 71.4757 64.9108 70.1706C63.1436 68.555 60.6486 67.9582 58.307 68.2681C56.9597 68.445 55.4803 68.7326 54.5528 69.8608C55.6575 69.6403 56.7388 69.1973 57.8879 69.3081ZM9.93978 75.6345C12.8325 76.4089 15.8143 76.6304 18.7738 76.8296C21.424 77.0065 24.0747 77.0511 26.7473 77.0287C33.6376 76.9187 40.5724 76.4535 47.3304 74.9494C47.9706 74.7947 48.6777 74.684 49.2526 74.2859C50.3788 73.5554 51.6148 72.9801 52.8301 72.4049C47.3304 73.2899 41.809 74.0427 36.2437 74.3964C30.6118 74.7503 24.9355 74.9716 19.282 74.5957C17.6698 74.441 16.0131 74.352 14.5114 73.7322C14.1576 73.5776 13.6716 73.2685 13.8482 72.8032C14.1798 72.2059 14.8423 71.9186 15.4165 71.6088C17.8463 70.4584 20.4964 69.8171 23.0805 69.0649C18.6409 68.9981 14.2236 70.1262 10.1607 71.8742C9.25487 72.3169 8.23905 72.6706 7.51049 73.423C7.22269 73.7321 7.22269 74.264 7.55432 74.5288C8.21704 75.1262 9.09997 75.3916 9.93978 75.6345ZM45.7188 81.7189C41.8535 82.4048 37.9659 83.0469 34.0566 83.2455C29.772 83.533 25.4875 83.2894 21.2473 82.8472C20.4303 82.7364 19.6129 82.604 18.8843 82.2281C18.5089 82.0067 18.1336 81.653 18.1558 81.1877C18.1996 80.4579 18.8176 79.9494 19.2598 79.4181C17.8909 79.9049 16.5212 80.4133 15.3729 81.3213C14.8863 81.6974 14.4009 82.2942 14.5331 82.9579C14.7327 83.7321 15.4834 84.1967 16.146 84.5504C17.7798 85.3916 19.6131 85.7672 21.4025 86.0992C25.9291 86.8297 30.5453 86.8519 35.0948 86.5414C39.9106 86.1655 44.7026 85.3694 49.3626 83.9975C48.0375 83.4006 46.7784 82.714 45.7188 81.7189ZM21.4462 89.3741C20.2094 89.7278 18.9504 90.1485 17.9347 90.9661C17.4258 91.3644 17.0289 92.051 17.2722 92.6924C17.5814 93.5107 18.3545 93.9982 19.0825 94.4173C20.9825 95.4578 23.1245 95.9439 25.2225 96.3205C29.9716 97.0721 34.852 96.9618 39.5786 96.1214C42.3831 95.5902 45.1882 94.838 47.7941 93.666C46.0935 92.9579 44.4375 92.1612 42.8475 91.2323C40.0868 91.719 37.3033 92.2282 34.4764 92.405C30.7445 92.6926 26.9675 92.3828 23.2349 91.9184C22.3513 91.7191 21.2473 91.6308 20.6509 90.8562C20.3423 90.2141 21.0487 89.7495 21.4462 89.3741ZM51.6595 103.598C54.7512 102.958 57.8657 102.226 60.6924 100.789C61.5754 100.28 62.6577 99.7264 62.9455 98.6652C63.0999 97.6476 62.0397 97.1164 61.2888 96.6959C61.7525 97.2278 62.0617 98.0017 61.5975 98.6207C60.8245 99.661 59.5001 100.059 58.3292 100.457C54.6633 101.497 50.8641 101.917 47.0877 102.338C37.0829 103.245 27.0115 103.466 17.0072 102.625C13.6501 102.271 10.2262 101.895 7.02396 100.701C6.51649 100.479 5.7434 100.258 5.7434 99.5718C5.9416 98.9757 6.51649 98.6428 7.02396 98.3552C9.32088 97.183 11.8829 96.5411 14.4447 96.3864C13.6945 95.9437 12.8109 95.8998 11.9496 95.922C9.80687 95.9883 7.70887 96.5411 5.6774 97.2278C3.93249 97.8684 2.14357 98.5768 0.751762 99.8603C0.199757 100.346 -0.307712 101.275 0.265763 101.94C1.1494 102.891 2.51903 103.134 3.73287 103.422C10.5354 104.594 17.4258 105.257 24.3174 105.501C33.4609 105.767 42.6704 105.369 51.6595 103.598ZM60.7146 104.793C56.5623 106.121 52.2559 106.851 47.9708 107.448C40.5724 108.377 33.1071 108.665 25.6642 108.444C21.1369 108.267 16.6096 107.957 12.1478 107.204C13.1858 107.913 14.4671 108.133 15.66 108.466C20.6738 109.528 25.8191 109.727 30.9213 109.881C38.4073 110.014 45.8946 109.727 53.2715 108.554C56.7615 107.936 60.273 107.183 63.4085 105.546C65.0435 104.683 66.7003 103.355 66.9861 101.431C65.3303 103.2 62.9455 104.019 60.7146 104.793Z" fill="white"/>
        <path d="M18.3379 14.2285C17.5215 14.2285 16.7988 14.1055 16.1699 13.8594C15.541 13.6133 15.0488 13.2285 14.6934 12.7051C14.3379 12.1816 14.1602 11.5059 14.1602 10.6777V9.78711L17.4121 9.3418V10.2441C17.4121 10.623 17.4902 10.9043 17.6465 11.0879C17.8066 11.2676 17.9883 11.3574 18.1914 11.3574C18.4023 11.3574 18.5938 11.2559 18.7656 11.0527C18.9375 10.8457 19.0234 10.5645 19.0234 10.209V4.64258H22.7559V9.16602C22.7559 10.127 22.6426 10.9316 22.416 11.5801C22.1934 12.2285 21.8809 12.748 21.4785 13.1387C21.0762 13.5254 20.6074 13.8047 20.0723 13.9766C19.5371 14.1445 18.959 14.2285 18.3379 14.2285ZM23.5293 14L28.1816 5.11719C28.2949 4.90234 28.4707 4.73633 28.709 4.61914C28.9473 4.49805 29.1953 4.4375 29.4531 4.4375C29.6836 4.4375 29.9082 4.49023 30.127 4.5957C30.3496 4.70117 30.5215 4.86328 30.6426 5.08203L35.6348 14H30.8828L30.5137 13.0742H27.9824L27.666 14H23.5293ZM28.2695 11.2168H30.1621L29.2656 8.68555L28.2695 11.2168ZM37.6211 4.64258L39.0801 7.57812L40.4395 4.64258H43.873L39.2734 13.9883C39.2266 14.0781 39.1523 14.1484 39.0508 14.1992C38.9531 14.25 38.8516 14.2754 38.7461 14.2754C38.6367 14.2754 38.5332 14.252 38.4355 14.2051C38.3418 14.1582 38.2695 14.0859 38.2188 13.9883L33.373 4.64258H37.6211ZM41.6465 14L46.2988 5.11719C46.4121 4.90234 46.5879 4.73633 46.8262 4.61914C47.0645 4.49805 47.3125 4.4375 47.5703 4.4375C47.8008 4.4375 48.0254 4.49023 48.2441 4.5957C48.4668 4.70117 48.6387 4.86328 48.7598 5.08203L53.752 14H49L48.6309 13.0742H46.0996L45.7832 14H41.6465ZM46.3867 11.2168H48.2793L47.3828 8.68555L46.3867 11.2168Z" fill="white"/>
    </g>
    <defs>
        <clipPath id="clip0_9_24206">
            <rect width="67" height="110" fill="white"/>
        </clipPath>
    </defs>
</svg>