<svg width="87" height="110" viewBox="0 0 87 110" fill="none"
    xmlns="http://www.w3.org/2000/svg">
    <g clip-path="url(#clip0_8_24193)">
        <path d="M0 32.1606C0 26.8811 4.26029 22.6013 9.51562 22.6013H77.4844C82.7397 22.6013 87 26.8811 87 32.1606V43.0854C87 45.348 85.1741 47.1822 82.9219 47.1822C80.6697 47.1822 78.8438 45.348 78.8438 43.0854V32.1606C78.8438 31.4064 78.2353 30.7949 77.4844 30.7949H9.51562C8.76487 30.7949 8.15625 31.4064 8.15625 32.1606V100.441C8.15625 101.195 8.76487 101.806 9.51562 101.806H82.9219C85.1741 101.806 87 103.641 87 105.903C87 108.166 85.1741 110 82.9219 110H9.51562C4.26029 110 0 105.72 0 100.441V32.1606ZM44.8594 54.0102C47.1116 54.0102 48.9375 55.8445 48.9375 58.107V79.9567C48.9375 85.4454 47.4367 89.5618 44.3436 92.151C41.3915 94.6222 37.8115 94.9784 35.3438 94.9784C33.0915 94.9784 31.2656 93.1441 31.2656 90.8816C31.2656 88.619 33.0915 86.7847 35.3438 86.7847C37.226 86.7847 38.4038 86.4581 39.1221 85.8567C39.6992 85.3732 40.7812 84.0273 40.7812 79.9567V58.107C40.7812 55.8445 42.6071 54.0102 44.8594 54.0102ZM61.3116 58.5446C63.5883 55.8218 67.1569 54.0102 72.0469 54.0102C76.5866 54.0102 80.0117 55.5707 82.3205 58.0241C83.8675 59.6684 83.7946 62.2613 82.1579 63.8155C80.5212 65.3698 77.94 65.2967 76.3931 63.6524C75.7955 63.0176 74.6047 62.2039 72.0469 62.2039C69.3243 62.2039 68.1351 63.1235 67.5571 63.8147C66.8454 64.6655 66.6094 65.7326 66.6094 66.3007C66.6094 66.8688 66.8454 67.9358 67.5571 68.7867C68.1351 69.4778 69.3243 70.3975 72.0469 70.3975C72.4585 70.3975 72.856 70.4587 73.2301 70.5727C76.8357 71.0883 79.561 72.7054 81.4228 74.9319C83.5657 77.4948 84.2812 80.5248 84.2812 82.6879C84.2812 84.851 83.5657 87.881 81.4228 90.444C79.1461 93.167 75.5774 94.9784 70.6875 94.9784C66.1477 94.9784 62.7227 93.4177 60.4139 90.9646C58.8669 89.3204 58.9398 86.7274 60.5765 85.1728C62.2132 83.6187 64.7943 83.6919 66.3413 85.3361C66.9389 85.9708 68.1297 86.7847 70.6875 86.7847C73.4101 86.7847 74.5992 85.8649 75.1772 85.1739C75.889 84.3228 76.125 83.256 76.125 82.6879C76.125 82.1198 75.889 81.053 75.1772 80.202C74.5992 79.511 73.4101 78.5911 70.6875 78.5911C70.2759 78.5911 69.8784 78.5299 69.5043 78.4158C65.8987 77.9001 63.1734 76.2832 61.3116 74.0567C59.1687 71.4935 58.4531 68.4638 58.4531 66.3007C58.4531 64.1375 59.1687 61.1078 61.3116 58.5446Z" fill="white"/>
        <path d="M8.5498 15.1904C7.86947 15.1904 7.26725 15.0879 6.74316 14.8828C6.21908 14.6777 5.80892 14.3571 5.5127 13.9209C5.21647 13.4847 5.06836 12.9215 5.06836 12.2314V11.4893L7.77832 11.1182V11.8701C7.77832 12.1859 7.84342 12.4202 7.97363 12.5732C8.1071 12.723 8.25846 12.7979 8.42773 12.7979C8.60352 12.7979 8.76302 12.7132 8.90625 12.5439C9.04948 12.3714 9.12109 12.137 9.12109 11.8408V7.20215H12.2314V10.9717C12.2314 11.7725 12.137 12.443 11.9482 12.9834C11.7627 13.5238 11.5023 13.9567 11.167 14.2822C10.8317 14.6045 10.4411 14.8372 9.99512 14.9805C9.54915 15.1204 9.06738 15.1904 8.5498 15.1904ZM12.876 15L16.7529 7.59766C16.8473 7.41862 16.9938 7.28027 17.1924 7.18262C17.391 7.08171 17.5977 7.03125 17.8125 7.03125C18.0046 7.03125 18.1917 7.0752 18.374 7.16309C18.5596 7.25098 18.7028 7.38607 18.8037 7.56836L22.9639 15H19.0039L18.6963 14.2285H16.5869L16.3232 15H12.876ZM16.8262 12.6807H18.4033L17.6562 10.5713L16.8262 12.6807ZM24.6191 7.20215L25.835 9.64844L26.9678 7.20215H29.8291L25.9961 14.9902C25.957 15.0651 25.8952 15.1237 25.8105 15.166C25.7292 15.2083 25.6445 15.2295 25.5566 15.2295C25.4655 15.2295 25.3792 15.21 25.2979 15.1709C25.2197 15.1318 25.1595 15.0716 25.1172 14.9902L21.0791 7.20215H24.6191ZM27.9736 15L31.8506 7.59766C31.945 7.41862 32.0915 7.28027 32.29 7.18262C32.4886 7.08171 32.6953 7.03125 32.9102 7.03125C33.1022 7.03125 33.2894 7.0752 33.4717 7.16309C33.6572 7.25098 33.8005 7.38607 33.9014 7.56836L38.0615 15H34.1016L33.7939 14.2285H31.6846L31.4209 15H27.9736ZM31.9238 12.6807H33.501L32.7539 10.5713L31.9238 12.6807ZM38.6914 12.4121C38.7109 12.4154 38.8021 12.4447 38.9648 12.5C39.1309 12.5521 39.3311 12.6123 39.5654 12.6807C39.7998 12.7458 40.0342 12.8044 40.2686 12.8564C40.5062 12.9053 40.708 12.9297 40.874 12.9297C41.0173 12.9297 41.1344 12.9085 41.2256 12.8662C41.3167 12.8239 41.3623 12.7458 41.3623 12.6318C41.3623 12.5081 41.2972 12.3958 41.167 12.2949C41.0368 12.194 40.8691 12.0898 40.6641 11.9824C40.4622 11.875 40.2458 11.7529 40.0146 11.6162C39.7868 11.4795 39.5703 11.3151 39.3652 11.123C39.1634 10.931 38.9974 10.7015 38.8672 10.4346C38.737 10.1644 38.6719 9.84212 38.6719 9.46777C38.6719 9.00879 38.7679 8.62142 38.96 8.30566C39.152 7.98665 39.4092 7.73112 39.7314 7.53906C40.057 7.34375 40.4215 7.20215 40.8252 7.11426C41.2321 7.02637 41.6488 6.98242 42.0752 6.98242C42.4365 6.98242 42.7783 7.00195 43.1006 7.04102C43.4229 7.08008 43.6947 7.1224 43.916 7.16797C44.1406 7.21354 44.2822 7.24447 44.3408 7.26074V9.50195C44.3408 9.50195 44.2725 9.4873 44.1357 9.45801C44.0023 9.42871 43.833 9.39616 43.6279 9.36035C43.4261 9.32454 43.2161 9.29199 42.998 9.2627C42.7832 9.2334 42.5944 9.21875 42.4316 9.21875C42.2819 9.21875 42.1696 9.24479 42.0947 9.29688C42.0199 9.34896 41.9824 9.41081 41.9824 9.48242C41.9824 9.54102 42.015 9.60612 42.0801 9.67773C42.1452 9.74609 42.2233 9.7998 42.3145 9.83887C42.6562 9.98861 42.9785 10.1416 43.2812 10.2979C43.584 10.4541 43.8509 10.6348 44.082 10.8398C44.3132 11.0449 44.4938 11.2956 44.624 11.5918C44.7575 11.8848 44.8242 12.2445 44.8242 12.6709C44.8242 13.1787 44.6956 13.6214 44.4385 13.999C44.1846 14.3766 43.8167 14.6696 43.335 14.8779C42.8564 15.0863 42.2786 15.1904 41.6016 15.1904C41.0189 15.1904 40.5387 15.1628 40.1611 15.1074C39.7835 15.0521 39.4873 14.9902 39.2725 14.9219C39.0576 14.8503 38.9062 14.7868 38.8184 14.7314C38.7337 14.6761 38.6914 14.6484 38.6914 14.6484V12.4121ZM52.1631 14.7705C51.4697 15.0505 50.7194 15.1904 49.9121 15.1904C49.3587 15.1904 48.8216 15.1058 48.3008 14.9365C47.7832 14.7673 47.3177 14.5199 46.9043 14.1943C46.4941 13.8688 46.167 13.4684 45.9229 12.9932C45.682 12.5179 45.5615 11.9743 45.5615 11.3623C45.5615 10.7145 45.6755 10.1237 45.9033 9.58984C46.1344 9.05273 46.4616 8.59049 46.8848 8.20312C47.3079 7.8125 47.8092 7.51139 48.3887 7.2998C48.9681 7.08822 49.6094 6.98242 50.3125 6.98242C50.4427 6.98242 50.6071 6.98893 50.8057 7.00195C51.0075 7.01497 51.2158 7.03939 51.4307 7.0752C51.6455 7.10775 51.8392 7.15658 52.0117 7.22168V9.74121C51.7969 9.65983 51.5771 9.61914 51.3525 9.61914C51.0173 9.61914 50.708 9.70215 50.4248 9.86816C50.1416 10.0309 49.9154 10.2507 49.7461 10.5273C49.5768 10.804 49.4922 11.1117 49.4922 11.4502C49.4922 11.7855 49.5573 12.0475 49.6875 12.2363C49.8177 12.4251 50.0098 12.5195 50.2637 12.5195C50.3646 12.5195 50.485 12.5033 50.625 12.4707C50.765 12.4382 50.9554 12.3568 51.1963 12.2266C51.4404 12.0964 51.7627 11.8848 52.1631 11.5918V14.7705ZM53.3154 15V7.20215C53.3154 7.20215 53.4163 7.19564 53.6182 7.18262C53.8232 7.16634 54.0902 7.14681 54.4189 7.12402C54.751 7.10124 55.1123 7.08008 55.5029 7.06055C55.8968 7.03776 56.2858 7.01986 56.6699 7.00684C57.0573 6.99056 57.4023 6.98242 57.7051 6.98242C58.3366 6.98242 58.8721 7.06543 59.3115 7.23145C59.751 7.39421 60.1058 7.61068 60.376 7.88086C60.6462 8.15104 60.8431 8.44889 60.9668 8.77441C61.0938 9.09993 61.1572 9.42546 61.1572 9.75098C61.1572 10.3206 61.0124 10.8105 60.7227 11.2207C60.4329 11.6276 60.0635 11.9645 59.6143 12.2314L61.7334 15H57.876L56.5039 12.7393V15H53.3154ZM56.4844 11.3184C57.1159 11.084 57.5684 10.8301 57.8418 10.5566C58.1185 10.2799 58.2568 9.98372 58.2568 9.66797C58.2568 9.4043 58.208 9.22363 58.1104 9.12598C58.0127 9.02832 57.8906 8.97949 57.7441 8.97949C57.6497 8.97949 57.5521 8.99577 57.4512 9.02832C57.3503 9.05762 57.2445 9.09505 57.1338 9.14062L56.4844 9.40918V11.3184ZM65.7178 15H62.6807V7.20215H65.7178V15ZM70.791 6.98242C71.6992 6.98242 72.4349 7.08984 72.998 7.30469C73.5645 7.51953 73.9795 7.8597 74.2432 8.3252C74.5068 8.79069 74.6387 9.40267 74.6387 10.1611C74.6387 10.6689 74.5426 11.1344 74.3506 11.5576C74.1618 11.9775 73.8997 12.3405 73.5645 12.6465C73.2292 12.9525 72.8385 13.1901 72.3926 13.3594C71.9499 13.5254 71.4746 13.6084 70.9668 13.6084C70.8366 13.6084 70.7015 13.6051 70.5615 13.5986C70.4248 13.5921 70.2702 13.5889 70.0977 13.5889V15H66.9092V7.22168C67.6676 7.14681 68.3675 7.08822 69.0088 7.0459C69.6501 7.00358 70.2441 6.98242 70.791 6.98242ZM71.3086 9.00879C71.1947 9.00879 71.0661 9.03809 70.9229 9.09668C70.7829 9.15527 70.6478 9.22363 70.5176 9.30176C70.3906 9.37663 70.2848 9.44336 70.2002 9.50195C70.1188 9.56055 70.0781 9.58984 70.0781 9.58984V11.4307L70.6494 11.1523C70.9782 10.9896 71.2614 10.7894 71.499 10.5518C71.7399 10.3109 71.8604 10 71.8604 9.61914C71.8604 9.45638 71.8115 9.31478 71.7139 9.19434C71.6195 9.07064 71.4844 9.00879 71.3086 9.00879ZM75.1416 7.20215H82.5244V9.73145H80.3516V15H77.3145V9.73145H75.1416V7.20215Z" fill="white"/>
    </g>
    <defs>
        <clipPath id="clip0_8_24193">
            <rect width="87" height="110" fill="white"/>
        </clipPath>
    </defs>
</svg>