<svg width="136" height="110" viewBox="0 0 136 110" fill="none"
    xmlns="http://www.w3.org/2000/svg">
    <g clip-path="url(#clip0_11_11)">
        <path d="M91.8998 94.9701H44.1275C28.9953 94.655 16.8505 82.3979 16.8505 67.3275C16.8505 52.2572 28.9953 40.0001 44.1003 39.685H44.1321H91.9043C91.9179 39.685 91.9361 39.685 91.9542 39.685C107.327 39.685 119.793 52.0591 119.793 67.3275C119.793 82.596 107.331 94.9701 91.9542 94.9701C91.9361 94.9701 91.9179 94.9701 91.8998 94.9701ZM92.9923 24.6461H43.0259C19.2985 24.6641 0.0771484 43.7677 0.0771484 67.3275C0.0771484 90.8739 19.2758 109.964 42.9761 110.009H92.9923C116.706 109.973 135.918 90.8784 135.918 67.3275C135.918 43.7767 116.702 24.6821 92.9923 24.6461Z" fill="white"/>
        <path d="M39.1378 15.0597C38.3677 15.0597 37.6203 14.9253 36.8957 14.6564C36.1756 14.3829 35.5262 13.9933 34.9474 13.4874C34.3732 12.9816 33.9175 12.3754 33.5802 11.6691C33.243 10.9581 33.0744 10.1652 33.0744 9.29016C33.0744 8.43339 33.2316 7.65409 33.546 6.95227C33.8651 6.25045 34.3048 5.64661 34.8654 5.14075C35.4259 4.63489 36.0708 4.24752 36.8 3.97864C37.5337 3.7052 38.313 3.56848 39.1378 3.56848C40.0037 3.56848 40.8104 3.70064 41.5578 3.96497C42.3097 4.22473 42.966 4.60527 43.5265 5.10657C44.0916 5.60331 44.5314 6.20943 44.8459 6.92493C45.1649 7.63586 45.3244 8.4425 45.3244 9.34485C45.3244 10.2198 45.158 11.0105 44.8253 11.7169C44.4927 12.4187 44.0369 13.018 43.4582 13.5148C42.8794 14.0115 42.2186 14.3943 41.4757 14.6632C40.7375 14.9275 39.9582 15.0597 39.1378 15.0597ZM38.6593 11.505C38.9009 11.505 39.1584 11.3888 39.4318 11.1564C39.7052 10.9194 39.9627 10.6186 40.2043 10.254C40.4458 9.88944 40.6418 9.50435 40.7921 9.09875C40.9471 8.69316 41.0246 8.31946 41.0246 7.97766C41.0246 7.65865 40.9403 7.39433 40.7716 7.18469C40.603 6.97506 40.3182 6.87024 39.9171 6.87024C39.671 6.87024 39.4067 6.98645 39.1242 7.21887C38.8462 7.44674 38.5841 7.74296 38.338 8.10754C38.0965 8.46757 37.8983 8.85038 37.7433 9.25598C37.5884 9.65702 37.5109 10.0284 37.5109 10.3702C37.5109 10.6984 37.5975 10.9695 37.7707 11.1837C37.9484 11.3979 38.2446 11.505 38.6593 11.505ZM46.6847 14.7931V3.8761C46.6847 3.8761 46.826 3.86698 47.1085 3.84875C47.3957 3.82597 47.7694 3.79862 48.2296 3.76672C48.6945 3.73482 49.2003 3.7052 49.7472 3.67786C50.2987 3.64596 50.8432 3.62089 51.381 3.60266C51.9233 3.57987 52.4064 3.56848 52.8302 3.56848C53.7143 3.56848 54.464 3.68469 55.0793 3.91711C55.6945 4.14498 56.1912 4.44804 56.5695 4.82629C56.9477 5.20455 57.2235 5.62154 57.3966 6.07727C57.5744 6.533 57.6632 6.98873 57.6632 7.44446C57.6632 8.24198 57.4604 8.92786 57.0548 9.50208C56.6492 10.0717 56.132 10.5434 55.5031 10.9171L58.4699 14.7931H53.0695L51.1486 11.6281V14.7931H46.6847ZM51.1212 9.63879C52.0054 9.31067 52.6388 8.9552 53.0216 8.57239C53.409 8.18502 53.6027 7.7703 53.6027 7.32825C53.6027 6.95911 53.5343 6.70618 53.3976 6.56946C53.2609 6.43274 53.09 6.36438 52.8849 6.36438C52.7528 6.36438 52.616 6.38717 52.4748 6.43274C52.3335 6.47375 52.1854 6.52616 52.0304 6.58997L51.1212 6.96594V9.63879ZM59.1808 14.7931L64.6085 4.42981C64.7407 4.17916 64.9458 3.98547 65.2238 3.84875C65.5018 3.70748 65.7912 3.63684 66.0919 3.63684C66.3608 3.63684 66.6229 3.69836 66.8781 3.82141C67.1378 3.94446 67.3384 4.13359 67.4796 4.38879L73.3039 14.7931H67.7599L67.3293 13.713H64.3761L64.007 14.7931H59.1808ZM64.7111 11.546H66.9191L65.8732 8.5929L64.7111 11.546ZM82.0402 14.4718C81.0695 14.8637 80.019 15.0597 78.8888 15.0597C78.1141 15.0597 77.3621 14.9412 76.633 14.7042C75.9084 14.4672 75.2567 14.1209 74.6779 13.6652C74.1037 13.2094 73.6457 12.6489 73.3039 11.9835C72.9666 11.3182 72.798 10.5571 72.798 9.70032C72.798 8.79342 72.9575 7.96627 73.2765 7.21887C73.6001 6.46692 74.0581 5.81978 74.6505 5.27747C75.243 4.73059 75.9448 4.30904 76.756 4.01282C77.5672 3.71659 78.465 3.56848 79.4494 3.56848C79.6317 3.56848 79.8618 3.5776 80.1398 3.59583C80.4223 3.61405 80.714 3.64823 81.0148 3.69836C81.3156 3.74394 81.5867 3.8123 81.8283 3.90344V7.43079C81.5275 7.31685 81.2199 7.25989 80.9054 7.25989C80.436 7.25989 80.0031 7.3761 79.6066 7.60852C79.2101 7.83639 78.8934 8.144 78.6564 8.53137C78.4194 8.91874 78.3009 9.34941 78.3009 9.82336C78.3009 10.2928 78.3921 10.6596 78.5744 10.924C78.7567 11.1883 79.0255 11.3204 79.381 11.3204C79.5223 11.3204 79.6909 11.2976 79.8869 11.2521C80.0828 11.2065 80.3494 11.0926 80.6867 10.9103C81.0285 10.728 81.4796 10.4318 82.0402 10.0216V14.4718ZM83.6535 3.8761H87.9054V11.505H91.5763V14.7931H83.6535V3.8761ZM92.6359 3.8761H100.504V7.02063H96.8878V7.91614H100.49V10.5958H96.8878V11.6281H100.743V14.7931H92.6359V3.8761Z" fill="white"/>
    </g>
    <defs>
        <clipPath id="clip0_11_11">
            <rect width="136" height="110" fill="white"/>
        </clipPath>
    </defs>
</svg>