<svg width="92" height="110" viewBox="0 0 92 110" fill="none"
    xmlns="http://www.w3.org/2000/svg">
    <g clip-path="url(#clip0_11_70)">
        <path d="M30.0265 43.2078V42.9959C30.0265 39.1427 27.4697 37.216 23.2108 37.216H16.8245V48.9877H23.4293C27.6882 48.9877 30.0265 46.4214 30.0265 43.2078ZM0 17.5221V110H92V17.5221H0ZM8.5215 29.7253H23.8548C33.0127 29.7253 38.548 35.0775 38.548 42.9997V43.2117C38.548 51.9894 31.7323 56.698 23.2108 56.698H16.8245V68.0458H8.5215V29.7253ZM43.2285 98.4402H8.7285V92.6604H43.2285V98.4402ZM61.548 68.4735C50.2627 68.6855 41.9558 59.9078 41.9558 48.9877C41.952 38.0715 50.048 29.0818 61.7588 29.0818C69 29.0818 73.2588 31.4362 76.8775 35.0775L71.553 41.2812C68.5707 38.4992 65.5883 37.0002 61.755 37.0002C55.3993 37.0002 50.7418 42.2985 50.6882 48.8837C50.7418 55.4688 55.1885 60.7632 61.755 60.7632C66.0138 60.7632 68.7815 59.0485 71.76 56.2665L77.0883 61.6186C73.2588 65.9034 68.7853 68.4735 61.548 68.4735Z" fill="white"/>
        <path d="M7.86133 -0.224609C9.13281 -0.224609 10.1628 -0.0742188 10.9512 0.226562C11.7441 0.527344 12.3252 1.00358 12.6943 1.65527C13.0635 2.30697 13.248 3.16374 13.248 4.22559C13.248 4.93652 13.1136 5.58822 12.8447 6.18066C12.5804 6.76855 12.2135 7.27669 11.7441 7.70508C11.2747 8.13346 10.7279 8.46615 10.1035 8.70312C9.48372 8.93555 8.81836 9.05176 8.10742 9.05176C7.92513 9.05176 7.736 9.0472 7.54004 9.03809C7.34863 9.02897 7.13216 9.02441 6.89062 9.02441V11H2.42676V0.110352C3.48861 0.00553385 4.46842 -0.0764974 5.36621 -0.135742C6.264 -0.194987 7.0957 -0.224609 7.86133 -0.224609ZM8.58594 2.6123C8.42643 2.6123 8.24642 2.65332 8.0459 2.73535C7.84993 2.81738 7.66081 2.91309 7.47852 3.02246C7.30078 3.12728 7.15267 3.2207 7.03418 3.30273C6.92025 3.38477 6.86328 3.42578 6.86328 3.42578V6.00293L7.66309 5.61328C8.12337 5.38542 8.51986 5.10514 8.85254 4.77246C9.18978 4.43522 9.3584 4 9.3584 3.4668C9.3584 3.23893 9.29004 3.04069 9.15332 2.87207C9.02116 2.69889 8.83203 2.6123 8.58594 2.6123ZM16.3652 6.74121L13.0361 0.0830078H17.9102L18.9971 2.31836L20.1182 0.0830078H24.1924L20.7949 6.74121V11H16.3652V6.74121ZM33.0518 10.6787C32.0811 11.0706 31.0306 11.2666 29.9004 11.2666C29.1257 11.2666 28.3737 11.1481 27.6445 10.9111C26.9199 10.6742 26.2682 10.3278 25.6895 9.87207C25.1152 9.41634 24.6572 8.85579 24.3154 8.19043C23.9782 7.52507 23.8096 6.764 23.8096 5.90723C23.8096 5.00033 23.9691 4.17318 24.2881 3.42578C24.6117 2.67383 25.0697 2.02669 25.6621 1.48438C26.2546 0.9375 26.9564 0.515951 27.7676 0.219727C28.5788 -0.0764974 29.4766 -0.224609 30.4609 -0.224609C30.6432 -0.224609 30.8734 -0.215495 31.1514 -0.197266C31.4339 -0.179036 31.7256 -0.144857 32.0264 -0.0947266C32.3271 -0.0491536 32.5983 0.0192057 32.8398 0.110352V3.6377C32.5391 3.52376 32.2314 3.4668 31.917 3.4668C31.4476 3.4668 31.0146 3.58301 30.6182 3.81543C30.2217 4.04329 29.9049 4.35091 29.668 4.73828C29.431 5.12565 29.3125 5.55632 29.3125 6.03027C29.3125 6.49967 29.4036 6.86654 29.5859 7.13086C29.7682 7.39518 30.0371 7.52734 30.3926 7.52734C30.5339 7.52734 30.7025 7.50456 30.8984 7.45898C31.0944 7.41341 31.361 7.29948 31.6982 7.11719C32.04 6.9349 32.4912 6.63867 33.0518 6.22852V10.6787ZM41.1865 0.0830078H45.4453V11H41.1865V6.9668L38.917 7.16504V11H34.665V0.0830078H38.917V4.02734L41.1865 3.84277V0.0830078ZM46.5186 11L51.9463 0.636719C52.0785 0.386068 52.2835 0.192383 52.5615 0.0556641C52.8395 -0.085612 53.1289 -0.15625 53.4297 -0.15625C53.6986 -0.15625 53.9606 -0.0947266 54.2158 0.0283203C54.4756 0.151367 54.6761 0.340495 54.8174 0.595703L60.6416 11H55.0977L54.667 9.91992H51.7139L51.3447 11H46.5186ZM52.0488 7.75293H54.2568L53.2109 4.7998L52.0488 7.75293ZM61.6807 11V0.0830078C61.6807 0.0830078 61.8219 0.0738932 62.1045 0.0556641C62.3916 0.0328776 62.7653 0.00553385 63.2256 -0.0263672C63.6904 -0.0582682 64.1963 -0.0878906 64.7432 -0.115234C65.2946 -0.147135 65.8392 -0.172201 66.377 -0.19043C66.9193 -0.213216 67.4023 -0.224609 67.8262 -0.224609C68.7103 -0.224609 69.46 -0.108398 70.0752 0.124023C70.6904 0.351888 71.1872 0.654948 71.5654 1.0332C71.9437 1.41146 72.2194 1.82845 72.3926 2.28418C72.5703 2.73991 72.6592 3.19564 72.6592 3.65137C72.6592 4.44889 72.4564 5.13477 72.0508 5.70898C71.6452 6.27865 71.1279 6.75033 70.499 7.12402L73.4658 11H68.0654L66.1445 7.83496V11H61.6807ZM66.1172 5.8457C67.0013 5.51758 67.6348 5.16211 68.0176 4.7793C68.4049 4.39193 68.5986 3.97721 68.5986 3.53516C68.5986 3.16602 68.5303 2.91309 68.3936 2.77637C68.2568 2.63965 68.0859 2.57129 67.8809 2.57129C67.7487 2.57129 67.612 2.59408 67.4707 2.63965C67.3294 2.68066 67.1813 2.73307 67.0264 2.79688L66.1172 3.17285V5.8457ZM74.792 0.0830078H76.3574L81.6348 5.03906L87.0557 0.0830078H88.5664V11H84.0752V7.45898L81.2861 10.5215L78.5723 7.54102V11H74.792V0.0830078Z" fill="white"/>
    </g>
    <defs>
        <clipPath id="clip0_11_70">
            <rect width="92" height="110" fill="white"/>
        </clipPath>
    </defs>
</svg>