<svg width="93" height="110" viewBox="0 0 93 110" fill="none"
    xmlns="http://www.w3.org/2000/svg">
    <path d="M37.2003 32.6299H43.4003M27.9003 41.9143V26.4403C27.9003 23.0219 30.6762 20.2507 34.1003 20.2507H58.9003C62.3246 20.2507 65.1003 23.0219 65.1003 26.4403V57.3883C65.1003 60.8067 62.3246 63.5779 58.9003 63.5779H34.1003C30.6762 63.5779 27.9003 66.3492 27.9003 69.7675V100.716C27.9003 104.134 30.6762 106.905 34.1003 106.905H58.9003C62.3246 106.905 65.1003 104.134 65.1003 100.716V85.2416M49.6003 45.0091H9.30034C5.87617 45.0091 3.10034 47.7803 3.10034 51.1987V82.1468C3.10034 85.5653 5.87617 88.3364 9.30034 88.3364H27.9003M43.4003 82.1468H83.7003C87.1246 82.1468 89.9003 79.3757 89.9003 75.9571V45.0091C89.9003 41.5907 87.1246 38.8195 83.7003 38.8195H65.1003M49.6003 94.526H55.8003" stroke="white" stroke-width="3"/>
    <path d="M23.6263 6.01917C24.5345 6.01917 25.2701 6.12659 25.8333 6.34143C26.3997 6.55627 26.8147 6.89644 27.0784 7.36194C27.3421 7.82743 27.4739 8.43941 27.4739 9.19788C27.4739 9.70569 27.3779 10.1712 27.1858 10.5944C26.997 11.0143 26.735 11.3772 26.3997 11.6832C26.0644 11.9892 25.6738 12.2268 25.2278 12.3961C24.7851 12.5621 24.3098 12.6451 23.802 12.6451C23.6718 12.6451 23.5367 12.6419 23.3968 12.6354C23.26 12.6289 23.1054 12.6256 22.9329 12.6256V14.0367H19.7444V6.25842C20.5029 6.18355 21.2027 6.12496 21.844 6.08264C22.4853 6.04032 23.0794 6.01917 23.6263 6.01917ZM24.1438 8.04553C24.0299 8.04553 23.9013 8.07483 23.7581 8.13342C23.6181 8.19202 23.483 8.26038 23.3528 8.3385C23.2259 8.41337 23.1201 8.4801 23.0354 8.5387C22.9541 8.59729 22.9134 8.62659 22.9134 8.62659V10.4674L23.4846 10.1891C23.8134 10.0263 24.0966 9.82613 24.3343 9.5885C24.5751 9.34762 24.6956 9.03674 24.6956 8.65588C24.6956 8.49312 24.6468 8.35152 24.5491 8.23108C24.4547 8.10738 24.3196 8.04553 24.1438 8.04553ZM29.7005 10.9948L27.3225 6.23889H30.804L31.5804 7.83557L32.3811 6.23889H35.2913L32.8645 10.9948V14.0367H29.7005V10.9948ZM35.7796 6.23889H43.1624V8.76819H40.9895V14.0367H37.9524V8.76819H35.7796V6.23889ZM48.6897 6.23889H51.7317V14.0367H48.6897V11.1559L47.0686 11.2975V14.0367H44.0315V6.23889H47.0686V9.05627L48.6897 8.92444V6.23889ZM57.0296 14.2272C56.4794 14.2272 55.9456 14.1311 55.428 13.9391C54.9137 13.7438 54.4498 13.4655 54.0364 13.1041C53.6263 12.7428 53.3007 12.3099 53.0598 11.8053C52.819 11.2975 52.6985 10.7311 52.6985 10.1061C52.6985 9.4941 52.8108 8.93746 53.0354 8.43616C53.2633 7.93486 53.5774 7.50354 53.9778 7.14221C54.3782 6.78088 54.8388 6.50419 55.3596 6.31213C55.8837 6.11682 56.4404 6.01917 57.0296 6.01917C57.6481 6.01917 58.2242 6.11357 58.7581 6.30237C59.2952 6.48792 59.7639 6.75972 60.1643 7.1178C60.568 7.47262 60.8821 7.90556 61.1067 8.41663C61.3346 8.92444 61.4485 9.50061 61.4485 10.1451C61.4485 10.7701 61.3297 11.3349 61.0921 11.8395C60.8544 12.3408 60.5289 12.7688 60.1155 13.1237C59.7021 13.4785 59.2301 13.7519 58.6995 13.944C58.1721 14.1328 57.6155 14.2272 57.0296 14.2272ZM56.6878 11.6881C56.8603 11.6881 57.0442 11.6051 57.2395 11.4391C57.4348 11.2698 57.6188 11.055 57.7913 10.7946C57.9638 10.5341 58.1038 10.2591 58.2112 9.96936C58.3219 9.67965 58.3772 9.41272 58.3772 9.16858C58.3772 8.94071 58.317 8.75191 58.1966 8.60217C58.0761 8.45243 57.8727 8.37756 57.5862 8.37756C57.4104 8.37756 57.2216 8.46057 57.0198 8.62659C56.8212 8.78935 56.6341 9.00094 56.4583 9.26135C56.2858 9.51851 56.1442 9.79195 56.0335 10.0817C55.9228 10.3681 55.8675 10.6334 55.8675 10.8776C55.8675 11.1119 55.9293 11.3056 56.053 11.4586C56.18 11.6116 56.3916 11.6881 56.6878 11.6881ZM62.4202 6.23889H63.2112L67.469 9.276V6.23889H70.218V14.0367H69.1682L65.1595 11.3561V14.0367H62.4202V6.23889Z" fill="white"/>
</svg>