<svg width="90" height="110" viewBox="0 0 90 110" fill="none"
    xmlns="http://www.w3.org/2000/svg">
    <path d="M27.2806 33.3422C25.8691 34.1572 24.3837 36.4045 24.2113 41.3067C24.1294 43.6352 22.1754 45.4565 19.847 45.3746C17.5184 45.2927 15.6972 43.3387 15.779 41.0102C15.9904 35.0004 17.8909 29.0206 23.0619 26.0351C28.2476 23.0412 34.396 24.4008 39.7197 27.2409C41.7754 28.3376 42.5528 30.8932 41.4561 32.9488C40.3594 35.0045 37.8039 35.782 35.7482 34.6853C31.3976 32.3643 28.6964 32.5248 27.2806 33.3422ZM49.9016 40.6597C51.6958 39.1733 54.3552 39.4227 55.8417 41.217C58.9601 44.9808 61.9515 49.2728 64.6667 53.976C70.5184 64.1108 74.1262 74.4942 75.0988 83.2036C75.5842 87.5512 75.4357 91.6884 74.4204 95.2366C73.3972 98.8119 71.4043 102.048 68.0619 103.977C64.0181 106.312 59.3488 105.981 55.0752 104.425C50.7863 102.864 46.3722 99.9065 42.1642 96.0658C40.4434 94.4947 40.3217 91.8262 41.8925 90.1055C43.4633 88.3848 46.1317 88.2628 47.8525 89.8338C51.5601 93.2178 55.0444 95.4341 57.9617 96.4966C60.8946 97.5643 62.7396 97.3078 63.8432 96.6704C64.7679 96.1366 65.6983 95.0488 66.3086 92.9152C66.9268 90.7552 67.122 87.7976 66.7136 84.1396C65.898 76.8378 62.7699 67.5654 57.3598 58.1948C54.8714 53.8848 52.1483 49.9844 49.3443 46.5999C47.8579 44.8056 48.1074 42.1461 49.9016 40.6597Z" fill="white"/>
    <path d="M81.5625 66.1563C81.5625 64.5264 80.3587 62.1163 76.1996 59.516C74.2241 58.2808 73.6239 55.678 74.8592 53.7024C76.0944 51.7267 78.6971 51.1265 80.6726 52.3616C85.7717 55.5496 90 60.1853 90 66.1563C90 72.1442 85.7486 76.7888 80.6271 79.9793C78.6493 81.2112 76.0472 80.6071 74.8153 78.6293C73.5834 76.6516 74.1881 74.0498 76.1653 72.8179C80.3509 70.2107 81.5625 67.7911 81.5625 66.1563ZM63.9146 82.0876C64.305 84.3848 62.7593 86.5634 60.462 86.9538C55.6436 87.7722 50.4308 88.2166 45 88.2166C33.2974 88.2166 22.501 86.15 14.4723 82.6371C10.4643 80.8838 6.95582 78.6867 4.39048 76.0334C1.8055 73.3596 0 70.0155 0 66.1563C0 61.4871 2.62171 57.6086 6.10582 54.6857C9.60255 51.7522 14.3702 49.4079 19.8007 47.6842C22.0215 46.9793 24.3932 48.2081 25.0981 50.4289C25.803 52.6496 24.5742 55.0214 22.3534 55.7263C17.5688 57.245 13.9073 59.1543 11.5287 61.1498C9.13736 63.1559 8.4375 64.8818 8.4375 66.1563C8.4375 67.2239 8.91428 68.5735 10.4566 70.1688C12.0185 71.7844 14.4823 73.4321 17.8543 74.9073C24.5855 77.8519 34.1797 79.7791 45 79.7791C49.9767 79.7791 54.7162 79.3713 59.049 78.635C61.3462 78.2451 63.5248 79.7909 63.9146 82.0876Z" fill="white"/>
    <path d="M27.4045 96.6704C28.816 97.4855 31.505 97.6481 35.8365 95.3463C37.8941 94.2528 40.4483 95.0347 41.5416 97.0918C42.635 99.1494 41.8534 101.704 39.7959 102.797C34.4856 105.619 28.3568 106.963 23.1858 103.977C18.0001 100.984 16.1033 94.979 15.9011 88.9484C15.823 86.6197 17.6474 84.6689 19.9761 84.5908C22.3047 84.5126 24.2558 86.3368 24.3339 88.6655C24.4991 93.5941 25.9887 95.8531 27.4045 96.6704ZM22.4312 73.4213C20.2468 72.6107 19.1331 70.1828 19.9437 67.9984C21.6442 63.416 23.8654 58.6792 26.5808 53.976C32.4321 43.8413 39.6203 35.5248 46.6765 30.328C50.1992 27.7337 53.856 25.7937 57.4368 24.8988C61.0447 23.9971 64.8438 24.1055 68.1856 26.0351C72.2295 28.3697 74.2775 32.5794 75.0667 37.0582C75.8587 41.5532 75.5055 46.8543 74.2826 52.4191C73.7825 54.6948 71.5325 56.1343 69.2572 55.6344C66.9813 55.1345 65.5419 52.8844 66.042 50.6087C67.1186 45.7058 67.2958 41.5802 66.7575 38.5225C66.2158 35.4485 65.0705 33.9795 63.9669 33.3422C63.0427 32.8084 61.6353 32.5465 59.4826 33.0846C57.3024 33.6294 54.6436 34.9393 51.68 37.1218C45.7641 41.4789 39.298 48.8241 33.8879 58.1948C31.3995 62.5047 29.3832 66.8132 27.8541 70.9338C27.0435 73.1182 24.6156 74.2319 22.4312 73.4213Z" fill="white"/>
    <path d="M53.2083 65.3723C53.2083 69.5953 49.7848 73.0188 45.5617 73.0188C41.3387 73.0188 37.9153 69.5953 37.9153 65.3723C37.9153 61.1493 41.3387 57.7258 45.5617 57.7258C49.7848 57.7258 53.2083 61.1493 53.2083 65.3723Z" fill="white"/>
    <path d="M21.9473 14V4.64258C21.9473 4.64258 22.0684 4.63477 22.3105 4.61914C22.5566 4.59961 22.877 4.57617 23.2715 4.54883C23.6699 4.52148 24.1035 4.49609 24.5723 4.47266C25.0449 4.44531 25.5117 4.42383 25.9727 4.4082C26.4375 4.38867 26.8516 4.37891 27.2148 4.37891C27.9727 4.37891 28.6152 4.47852 29.1426 4.67773C29.6699 4.87305 30.0957 5.13281 30.4199 5.45703C30.7441 5.78125 30.9805 6.13867 31.1289 6.5293C31.2812 6.91992 31.3574 7.31055 31.3574 7.70117C31.3574 8.38477 31.1836 8.97266 30.8359 9.46484C30.4883 9.95312 30.0449 10.3574 29.5059 10.6777L32.0488 14H27.4199L25.7734 11.2871V14H21.9473ZM25.75 9.58203C26.5078 9.30078 27.0508 8.99609 27.3789 8.66797C27.7109 8.33594 27.877 7.98047 27.877 7.60156C27.877 7.28516 27.8184 7.06836 27.7012 6.95117C27.584 6.83398 27.4375 6.77539 27.2617 6.77539C27.1484 6.77539 27.0312 6.79492 26.9102 6.83398C26.7891 6.86914 26.6621 6.91406 26.5293 6.96875L25.75 7.29102V9.58203ZM33.1855 4.64258H39.9297V7.33789H36.8301V8.10547H39.918V10.4023H36.8301V11.2871H40.1348V14H33.1855V4.64258ZM41.002 14L45.6543 5.11719C45.7676 4.90234 45.9434 4.73633 46.1816 4.61914C46.4199 4.49805 46.668 4.4375 46.9258 4.4375C47.1562 4.4375 47.3809 4.49023 47.5996 4.5957C47.8223 4.70117 47.9941 4.86328 48.1152 5.08203L53.1074 14H48.3555L47.9863 13.0742H45.4551L45.1387 14H41.002ZM45.7422 11.2168H47.6348L46.7383 8.68555L45.7422 11.2168ZM60.5957 13.7246C59.7637 14.0605 58.8633 14.2285 57.8945 14.2285C57.2305 14.2285 56.5859 14.127 55.9609 13.9238C55.3398 13.7207 54.7812 13.4238 54.2852 13.0332C53.793 12.6426 53.4004 12.1621 53.1074 11.5918C52.8184 11.0215 52.6738 10.3691 52.6738 9.63477C52.6738 8.85742 52.8105 8.14844 53.084 7.50781C53.3613 6.86328 53.7539 6.30859 54.2617 5.84375C54.7695 5.375 55.3711 5.01367 56.0664 4.75977C56.7617 4.50586 57.5312 4.37891 58.375 4.37891C58.5312 4.37891 58.7285 4.38672 58.9668 4.40234C59.209 4.41797 59.459 4.44727 59.7168 4.49023C59.9746 4.5293 60.207 4.58789 60.4141 4.66602V7.68945C60.1562 7.5918 59.8926 7.54297 59.623 7.54297C59.2207 7.54297 58.8496 7.64258 58.5098 7.8418C58.1699 8.03711 57.8984 8.30078 57.6953 8.63281C57.4922 8.96484 57.3906 9.33398 57.3906 9.74023C57.3906 10.1426 57.4688 10.457 57.625 10.6836C57.7812 10.9102 58.0117 11.0234 58.3164 11.0234C58.4375 11.0234 58.582 11.0039 58.75 10.9648C58.918 10.9258 59.1465 10.8281 59.4355 10.6719C59.7285 10.5156 60.1152 10.2617 60.5957 9.91016V13.7246ZM61.5918 4.64258H70.4512V7.67773H67.8438V14H64.1992V7.67773H61.5918V4.64258Z" fill="white"/>
</svg>