<svg width="76" height="110" viewBox="0 0 76 110" fill="none"
    xmlns="http://www.w3.org/2000/svg">
    <g clip-path="url(#clip0_11_7)">
        <path d="M38 56.9642C56.4154 56.9642 76 51.2776 76 40.7589V31.9196C76 21.4008 56.4154 15.7142 38 15.7142C19.5846 15.7142 0 21.4008 0 31.9196V40.7589C0 51.2776 19.5846 56.9642 38 56.9642ZM5.84615 31.9196C5.84615 27.7062 18.3862 21.6071 38 21.6071C57.6138 21.6071 70.1538 27.7062 70.1538 31.9196V40.7589C70.1538 44.9723 57.6138 51.0714 38 51.0714C18.3862 51.0714 5.84615 44.9723 5.84615 40.7589V31.9196Z" fill="white"/>
        <path d="M38 110C56.4154 110 76 104.313 76 93.7946V84.9553C76 84.1739 75.692 83.4245 75.1439 82.8719C74.5957 82.3193 73.8522 82.0089 73.0769 82.0089C72.3017 82.0089 71.5582 82.3193 71.01 82.8719C70.4618 83.4245 70.1538 84.1739 70.1538 84.9553V93.7946C70.1538 98.008 57.6138 104.107 38 104.107C18.3862 104.107 5.84615 98.008 5.84615 93.7946V84.9553C5.84615 84.1739 5.53819 83.4245 4.99 82.8719C4.44182 82.3193 3.69833 82.0089 2.92308 82.0089C2.14783 82.0089 1.40433 82.3193 0.856149 82.8719C0.307966 83.4245 0 84.1739 0 84.9553V93.7946C0 104.313 19.5846 110 38 110Z" fill="white"/>
        <path d="M38 83.4822C56.4154 83.4822 76 77.7956 76 67.2768V58.4375C76 57.6561 75.692 56.9066 75.1439 56.3541C74.5957 55.8015 73.8522 55.4911 73.0769 55.4911C72.3017 55.4911 71.5582 55.8015 71.01 56.3541C70.4618 56.9066 70.1538 57.6561 70.1538 58.4375V67.2768C70.1538 71.4902 57.6138 77.5893 38 77.5893C18.3862 77.5893 5.84615 71.4902 5.84615 67.2768V58.4375C5.84615 57.6561 5.53819 56.9066 4.99 56.3541C4.44182 55.8015 3.69833 55.4911 2.92308 55.4911C2.14783 55.4911 1.40433 55.8015 0.856149 56.3541C0.307966 56.9066 0 57.6561 0 58.4375V67.2768C0 77.7956 19.5846 83.4822 38 83.4822Z" fill="white"/>
        <path d="M26.8282 7.41211C26.8478 7.41536 26.9389 7.44466 27.1017 7.5C27.2677 7.55208 27.4679 7.6123 27.7023 7.68066C27.9366 7.74577 28.171 7.80436 28.4054 7.85645C28.643 7.90527 28.8448 7.92969 29.0108 7.92969C29.1541 7.92969 29.2713 7.90853 29.3624 7.86621C29.4536 7.82389 29.4991 7.74577 29.4991 7.63184C29.4991 7.50814 29.434 7.39583 29.3038 7.29492C29.1736 7.19401 29.006 7.08984 28.8009 6.98242C28.5991 6.875 28.3826 6.75293 28.1515 6.61621C27.9236 6.47949 27.7071 6.3151 27.5021 6.12305C27.3002 5.93099 27.1342 5.7015 27.004 5.43457C26.8738 5.16439 26.8087 4.84212 26.8087 4.46777C26.8087 4.00879 26.9047 3.62142 27.0968 3.30566C27.2888 2.98665 27.546 2.73112 27.8683 2.53906C28.1938 2.34375 28.5584 2.20215 28.962 2.11426C29.3689 2.02637 29.7856 1.98242 30.212 1.98242C30.5733 1.98242 30.9151 2.00195 31.2374 2.04102C31.5597 2.08008 31.8315 2.1224 32.0528 2.16797C32.2775 2.21354 32.4191 2.24447 32.4776 2.26074V4.50195C32.4776 4.50195 32.4093 4.4873 32.2726 4.45801C32.1391 4.42871 31.9698 4.39616 31.7648 4.36035C31.5629 4.32454 31.353 4.29199 31.1349 4.2627C30.92 4.2334 30.7312 4.21875 30.5685 4.21875C30.4187 4.21875 30.3064 4.24479 30.2316 4.29688C30.1567 4.34896 30.1192 4.41081 30.1192 4.48242C30.1192 4.54102 30.1518 4.60612 30.2169 4.67773C30.282 4.74609 30.3601 4.7998 30.4513 4.83887C30.7931 4.98861 31.1153 5.1416 31.4181 5.29785C31.7208 5.4541 31.9877 5.63477 32.2189 5.83984C32.45 6.04492 32.6306 6.29557 32.7608 6.5918C32.8943 6.88477 32.961 7.24447 32.961 7.6709C32.961 8.17871 32.8325 8.62142 32.5753 8.99902C32.3214 9.37663 31.9536 9.6696 31.4718 9.87793C30.9933 10.0863 30.4155 10.1904 29.7384 10.1904C29.1557 10.1904 28.6756 10.1628 28.298 10.1074C27.9204 10.0521 27.6241 9.99023 27.4093 9.92188C27.1944 9.85026 27.0431 9.78678 26.9552 9.73145C26.8705 9.67611 26.8282 9.64844 26.8282 9.64844V7.41211ZM38.0782 10.1904C37.5281 10.1904 36.9942 10.0944 36.4767 9.90234C35.9623 9.70703 35.5001 9.42871 35.09 9.06738C34.6798 8.70605 34.3543 8.27311 34.1134 7.76855C33.8725 7.26074 33.7521 6.69434 33.7521 6.06934C33.7521 5.45736 33.8644 4.90072 34.089 4.39941C34.3168 3.89811 34.6293 3.4668 35.0265 3.10547C35.4269 2.74414 35.8875 2.46745 36.4083 2.27539C36.9324 2.08008 37.489 1.98242 38.0782 1.98242C38.7 1.98242 39.2778 2.07682 39.8116 2.26562C40.3487 2.45117 40.8175 2.72298 41.2179 3.08105C41.6215 3.43587 41.9357 3.86882 42.1603 4.37988C42.3881 4.8877 42.5021 5.46387 42.5021 6.1084C42.5021 6.42415 42.4695 6.72526 42.4044 7.01172C42.3426 7.29492 42.253 7.56185 42.1358 7.8125C42.533 7.94271 42.8585 8.00781 43.1124 8.00781C43.1157 8.00781 43.1173 8.08105 43.1173 8.22754C43.1205 8.37077 43.1222 8.5498 43.1222 8.76465C43.1254 8.97624 43.1271 9.18945 43.1271 9.4043C43.1303 9.61914 43.1319 9.7998 43.1319 9.94629C43.1319 10.0895 43.1319 10.1611 43.1319 10.1611C42.9822 10.1807 42.8325 10.1904 42.6827 10.1904C42.3116 10.1904 41.9519 10.1286 41.6036 10.0049C41.2586 9.88118 40.9233 9.71517 40.5978 9.50684C39.8523 9.96257 39.0125 10.1904 38.0782 10.1904ZM38.6398 4.34082C38.464 4.34082 38.2752 4.42383 38.0733 4.58984C37.8748 4.7526 37.6876 4.96419 37.5118 5.22461C37.3393 5.48177 37.1977 5.75521 37.087 6.04492C36.9763 6.33138 36.921 6.59668 36.921 6.84082C36.921 7.0752 36.9829 7.26888 37.1066 7.42188C37.2335 7.57487 37.4451 7.65137 37.7413 7.65137C37.8292 7.65137 37.9204 7.62695 38.0148 7.57812C38.1124 7.5293 38.2101 7.46419 38.3077 7.38281C38.1873 7.24609 38.0685 7.10775 37.9513 6.96777C37.8341 6.8278 37.7169 6.68783 37.5997 6.54785L38.1319 5.75195C38.2849 5.85286 38.4412 5.95378 38.6007 6.05469C38.7602 6.1556 38.9197 6.25488 39.0792 6.35254C39.1834 6.14421 39.268 5.93424 39.3331 5.72266C39.3982 5.51107 39.4308 5.31413 39.4308 5.13184C39.4308 4.90397 39.3705 4.71517 39.2501 4.56543C39.1297 4.41569 38.9262 4.34082 38.6398 4.34082ZM43.8448 2.20215H46.8819V7.65137H49.504V10H43.8448V2.20215Z" fill="white"/>
    </g>
    <defs>
        <clipPath id="clip0_11_7">
            <rect width="76" height="110" fill="white"/>
        </clipPath>
    </defs>
</svg>