<svg width="75" height="110" viewBox="0 0 75 110" fill="none"
    xmlns="http://www.w3.org/2000/svg">
    <g clip-path="url(#clip0_77_5)">
        <path d="M38.1693 64.1621C54.2949 64.1621 71.4443 59.2472 71.4443 50.156V42.5163C71.4443 33.4251 54.2949 28.5103 38.1693 28.5103C22.0437 28.5103 4.89429 33.4251 4.89429 42.5163V50.156C4.89429 59.2472 22.0437 64.1621 38.1693 64.1621ZM10.0135 42.5163C10.0135 38.8747 20.9943 33.6034 38.1693 33.6034C55.3443 33.6034 66.3251 38.8747 66.3251 42.5163V50.156C66.3251 53.7976 55.3443 59.0689 38.1693 59.0689C20.9943 59.0689 10.0135 53.7976 10.0135 50.156V42.5163Z" fill="white"/>
        <path d="M38.1693 110C54.2949 110 71.4443 105.085 71.4443 95.9941V88.3544C71.4443 87.679 71.1746 87.0313 70.6946 86.5537C70.2146 86.0762 69.5635 85.8079 68.8847 85.8079C68.2058 85.8079 67.5548 86.0762 67.0748 86.5537C66.5948 87.0313 66.3251 87.679 66.3251 88.3544V95.9941C66.3251 99.6357 55.3443 104.907 38.1693 104.907C20.9943 104.907 10.0135 99.6357 10.0135 95.9941V88.3544C10.0135 87.679 9.74385 87.0313 9.26383 86.5537C8.7838 86.0762 8.13276 85.8079 7.4539 85.8079C6.77505 85.8079 6.124 86.0762 5.64398 86.5537C5.16396 87.0313 4.89429 87.679 4.89429 88.3544V95.9941C4.89429 105.085 22.0437 110 38.1693 110Z" fill="white"/>
        <path d="M38.1693 87.081C54.2949 87.081 71.4443 82.1661 71.4443 73.0749V65.4352C71.4443 64.7598 71.1746 64.1121 70.6946 63.6345C70.2146 63.157 69.5635 62.8887 68.8847 62.8887C68.2058 62.8887 67.5548 63.157 67.0748 63.6345C66.5948 64.1121 66.3251 64.7598 66.3251 65.4352V73.0749C66.3251 76.7165 55.3443 81.9878 38.1693 81.9878C20.9943 81.9878 10.0135 76.7165 10.0135 73.0749V65.4352C10.0135 64.7598 9.74385 64.1121 9.26383 63.6345C8.7838 63.157 8.13276 62.8887 7.4539 62.8887C6.77505 62.8887 6.124 63.157 5.64398 63.6345C5.16396 64.1121 4.89429 64.7598 4.89429 65.4352V73.0749C4.89429 82.1661 22.0437 87.081 38.1693 87.081Z" fill="white"/>
    </g>
    <path d="M26.3281 6.41211C26.3477 6.41536 26.4388 6.44466 26.6016 6.5C26.7676 6.55208 26.9678 6.6123 27.2021 6.68066C27.4365 6.74577 27.6709 6.80436 27.9053 6.85645C28.1429 6.90527 28.3447 6.92969 28.5107 6.92969C28.654 6.92969 28.7712 6.90853 28.8623 6.86621C28.9535 6.82389 28.999 6.74577 28.999 6.63184C28.999 6.50814 28.9339 6.39583 28.8037 6.29492C28.6735 6.19401 28.5059 6.08984 28.3008 5.98242C28.099 5.875 27.8825 5.75293 27.6514 5.61621C27.4235 5.47949 27.207 5.3151 27.002 5.12305C26.8001 4.93099 26.6341 4.7015 26.5039 4.43457C26.3737 4.16439 26.3086 3.84212 26.3086 3.46777C26.3086 3.00879 26.4046 2.62142 26.5967 2.30566C26.7887 1.98665 27.0459 1.73112 27.3682 1.53906C27.6937 1.34375 28.0583 1.20215 28.4619 1.11426C28.8688 1.02637 29.2855 0.982422 29.7119 0.982422C30.0732 0.982422 30.415 1.00195 30.7373 1.04102C31.0596 1.08008 31.3314 1.1224 31.5527 1.16797C31.7773 1.21354 31.9189 1.24447 31.9775 1.26074V3.50195C31.9775 3.50195 31.9092 3.4873 31.7725 3.45801C31.639 3.42871 31.4697 3.39616 31.2646 3.36035C31.0628 3.32454 30.8529 3.29199 30.6348 3.2627C30.4199 3.2334 30.2311 3.21875 30.0684 3.21875C29.9186 3.21875 29.8063 3.24479 29.7314 3.29688C29.6566 3.34896 29.6191 3.41081 29.6191 3.48242C29.6191 3.54102 29.6517 3.60612 29.7168 3.67773C29.7819 3.74609 29.86 3.7998 29.9512 3.83887C30.293 3.98861 30.6152 4.1416 30.918 4.29785C31.2207 4.4541 31.4876 4.63477 31.7188 4.83984C31.9499 5.04492 32.1305 5.29557 32.2607 5.5918C32.3942 5.88477 32.4609 6.24447 32.4609 6.6709C32.4609 7.17871 32.3324 7.62142 32.0752 7.99902C31.8213 8.37663 31.4535 8.6696 30.9717 8.87793C30.4932 9.08626 29.9154 9.19043 29.2383 9.19043C28.6556 9.19043 28.1755 9.16276 27.7979 9.10742C27.4202 9.05208 27.124 8.99023 26.9092 8.92188C26.6943 8.85026 26.543 8.78678 26.4551 8.73145C26.3704 8.67611 26.3281 8.64844 26.3281 8.64844V6.41211ZM37.5781 9.19043C37.028 9.19043 36.4941 9.0944 35.9766 8.90234C35.4622 8.70703 35 8.42871 34.5898 8.06738C34.1797 7.70605 33.8542 7.27311 33.6133 6.76855C33.3724 6.26074 33.252 5.69434 33.252 5.06934C33.252 4.45736 33.3643 3.90072 33.5889 3.39941C33.8167 2.89811 34.1292 2.4668 34.5264 2.10547C34.9268 1.74414 35.3874 1.46745 35.9082 1.27539C36.4323 1.08008 36.9889 0.982422 37.5781 0.982422C38.1999 0.982422 38.7777 1.07682 39.3115 1.26562C39.8486 1.45117 40.3174 1.72298 40.7178 2.08105C41.1214 2.43587 41.4355 2.86882 41.6602 3.37988C41.888 3.8877 42.002 4.46387 42.002 5.1084C42.002 5.42415 41.9694 5.72526 41.9043 6.01172C41.8424 6.29492 41.7529 6.56185 41.6357 6.8125C42.0329 6.94271 42.3584 7.00781 42.6123 7.00781C42.6156 7.00781 42.6172 7.08105 42.6172 7.22754C42.6204 7.37077 42.6221 7.5498 42.6221 7.76465C42.6253 7.97624 42.627 8.18945 42.627 8.4043C42.6302 8.61914 42.6318 8.7998 42.6318 8.94629C42.6318 9.08952 42.6318 9.16113 42.6318 9.16113C42.4821 9.18066 42.3324 9.19043 42.1826 9.19043C41.8115 9.19043 41.4518 9.12858 41.1035 9.00488C40.7585 8.88118 40.4232 8.71517 40.0977 8.50684C39.3522 8.96257 38.5124 9.19043 37.5781 9.19043ZM38.1396 3.34082C37.9639 3.34082 37.7751 3.42383 37.5732 3.58984C37.3747 3.7526 37.1875 3.96419 37.0117 4.22461C36.8392 4.48177 36.6976 4.75521 36.5869 5.04492C36.4762 5.33138 36.4209 5.59668 36.4209 5.84082C36.4209 6.0752 36.4827 6.26888 36.6064 6.42188C36.7334 6.57487 36.945 6.65137 37.2412 6.65137C37.3291 6.65137 37.4202 6.62695 37.5146 6.57812C37.6123 6.5293 37.71 6.46419 37.8076 6.38281C37.6872 6.24609 37.5684 6.10775 37.4512 5.96777C37.334 5.8278 37.2168 5.68783 37.0996 5.54785L37.6318 4.75195C37.7848 4.85286 37.9411 4.95378 38.1006 5.05469C38.2601 5.1556 38.4196 5.25488 38.5791 5.35254C38.6833 5.14421 38.7679 4.93424 38.833 4.72266C38.8981 4.51107 38.9307 4.31413 38.9307 4.13184C38.9307 3.90397 38.8704 3.71517 38.75 3.56543C38.6296 3.41569 38.4261 3.34082 38.1396 3.34082ZM43.3447 1.20215H46.3818V6.65137H49.0039V9H43.3447V1.20215ZM1.84082 18.2021C1.84082 18.2021 1.93848 18.1956 2.13379 18.1826C2.3291 18.1663 2.58464 18.1468 2.90039 18.124C3.21615 18.1012 3.55957 18.0801 3.93066 18.0605C4.30176 18.0378 4.66634 18.0199 5.02441 18.0068C5.38574 17.9906 5.70475 17.9824 5.98145 17.9824C6.61947 17.9824 7.17285 18.1029 7.6416 18.3438C8.11035 18.5846 8.49772 18.9069 8.80371 19.3105C9.1097 19.7109 9.33757 20.1553 9.4873 20.6436C9.63704 21.1286 9.71191 21.6169 9.71191 22.1084C9.71191 22.7204 9.60775 23.2673 9.39941 23.749C9.19108 24.2308 8.89974 24.6393 8.52539 24.9746C8.1543 25.3099 7.71647 25.5654 7.21191 25.7412C6.71061 25.9137 6.16699 26 5.58105 26H1.84082V18.2021ZM4.87793 23.6514C5.05046 23.5049 5.236 23.3584 5.43457 23.2119C5.63314 23.0654 5.82031 22.9092 5.99609 22.7432C6.17513 22.5771 6.31999 22.3916 6.43066 22.1865C6.5446 21.9782 6.60156 21.7389 6.60156 21.4688C6.60156 21.2897 6.56413 21.1074 6.48926 20.9219C6.41439 20.7363 6.30534 20.5817 6.16211 20.458C6.02214 20.3311 5.84798 20.2676 5.63965 20.2676C5.48991 20.2676 5.34831 20.3083 5.21484 20.3896C5.08464 20.471 4.97233 20.5671 4.87793 20.6777V23.6514ZM10.6787 18.2021H16.2988V20.4482H13.7158V21.0879H16.2891V23.002H13.7158V23.7393H16.4697V26H10.6787V18.2021ZM20.6934 18.2021L21.9092 20.6484L23.042 18.2021H25.9033L22.0703 25.9902C22.0312 26.0651 21.9694 26.1237 21.8848 26.166C21.8034 26.2083 21.7188 26.2295 21.6309 26.2295C21.5397 26.2295 21.4535 26.21 21.3721 26.1709C21.2939 26.1318 21.2337 26.0716 21.1914 25.9902L17.1533 18.2021H20.6934ZM26.6357 18.2021H32.2559V20.4482H29.6729V21.0879H32.2461V23.002H29.6729V23.7393H32.4268V26H26.6357V18.2021ZM33.5889 18.2021H36.626V23.6514H39.248V26H33.5889V18.2021ZM44.0967 26.1904C43.5465 26.1904 43.0127 26.0944 42.4951 25.9023C41.9808 25.707 41.5169 25.4287 41.1035 25.0674C40.6934 24.7061 40.3678 24.2731 40.127 23.7686C39.8861 23.2607 39.7656 22.6943 39.7656 22.0693C39.7656 21.4574 39.8779 20.9007 40.1025 20.3994C40.3304 19.8981 40.6445 19.4668 41.0449 19.1055C41.4453 18.7441 41.9059 18.4674 42.4268 18.2754C42.9508 18.0801 43.5075 17.9824 44.0967 17.9824C44.7152 17.9824 45.2913 18.0768 45.8252 18.2656C46.3623 18.4512 46.8311 18.723 47.2314 19.0811C47.6351 19.4359 47.9492 19.8688 48.1738 20.3799C48.4017 20.8877 48.5156 21.4639 48.5156 22.1084C48.5156 22.7334 48.3968 23.2982 48.1592 23.8027C47.9215 24.304 47.596 24.7321 47.1826 25.0869C46.7692 25.4417 46.2972 25.7152 45.7666 25.9072C45.2393 26.096 44.6826 26.1904 44.0967 26.1904ZM43.7549 23.6514C43.9274 23.6514 44.1113 23.5684 44.3066 23.4023C44.502 23.2331 44.6859 23.0182 44.8584 22.7578C45.0309 22.4974 45.1709 22.2223 45.2783 21.9326C45.389 21.6429 45.4443 21.376 45.4443 21.1318C45.4443 20.904 45.3841 20.7152 45.2637 20.5654C45.1432 20.4157 44.9398 20.3408 44.6533 20.3408C44.4775 20.3408 44.2887 20.4238 44.0869 20.5898C43.8883 20.7526 43.7012 20.9642 43.5254 21.2246C43.3529 21.4818 43.2113 21.7552 43.1006 22.0449C42.9899 22.3314 42.9346 22.5967 42.9346 22.8408C42.9346 23.0752 42.9964 23.2689 43.1201 23.4219C43.2471 23.5749 43.4587 23.6514 43.7549 23.6514ZM53.3691 17.9824C54.2773 17.9824 55.013 18.0898 55.5762 18.3047C56.1426 18.5195 56.5576 18.8597 56.8213 19.3252C57.085 19.7907 57.2168 20.4027 57.2168 21.1611C57.2168 21.6689 57.1208 22.1344 56.9287 22.5576C56.7399 22.9775 56.4779 23.3405 56.1426 23.6465C55.8073 23.9525 55.4167 24.1901 54.9707 24.3594C54.528 24.5254 54.0527 24.6084 53.5449 24.6084C53.4147 24.6084 53.2796 24.6051 53.1396 24.5986C53.0029 24.5921 52.8483 24.5889 52.6758 24.5889V26H49.4873V18.2217C50.2458 18.1468 50.9456 18.0882 51.5869 18.0459C52.2282 18.0036 52.8223 17.9824 53.3691 17.9824ZM53.8867 20.0088C53.7728 20.0088 53.6442 20.0381 53.501 20.0967C53.361 20.1553 53.2259 20.2236 53.0957 20.3018C52.9688 20.3766 52.863 20.4434 52.7783 20.502C52.6969 20.5605 52.6562 20.5898 52.6562 20.5898V22.4307L53.2275 22.1523C53.5563 21.9896 53.8395 21.7894 54.0771 21.5518C54.318 21.3109 54.4385 21 54.4385 20.6191C54.4385 20.4564 54.3896 20.3148 54.292 20.1943C54.1976 20.0706 54.0625 20.0088 53.8867 20.0088ZM58.042 18.2021H63.6621V20.4482H61.0791V21.0879H63.6523V23.002H61.0791V23.7393H63.833V26H58.042V18.2021ZM64.9951 26V18.2021C64.9951 18.2021 65.096 18.1956 65.2979 18.1826C65.5029 18.1663 65.7699 18.1468 66.0986 18.124C66.4307 18.1012 66.792 18.0801 67.1826 18.0605C67.5765 18.0378 67.9655 18.0199 68.3496 18.0068C68.737 17.9906 69.082 17.9824 69.3848 17.9824C70.0163 17.9824 70.5518 18.0654 70.9912 18.2314C71.4307 18.3942 71.7855 18.6107 72.0557 18.8809C72.3258 19.151 72.5228 19.4489 72.6465 19.7744C72.7734 20.0999 72.8369 20.4255 72.8369 20.751C72.8369 21.3206 72.6921 21.8105 72.4023 22.2207C72.1126 22.6276 71.7432 22.9645 71.2939 23.2314L73.4131 26H69.5557L68.1836 23.7393V26H64.9951ZM68.1641 22.3184C68.7956 22.084 69.248 21.8301 69.5215 21.5566C69.7982 21.2799 69.9365 20.9837 69.9365 20.668C69.9365 20.4043 69.8877 20.2236 69.79 20.126C69.6924 20.0283 69.5703 19.9795 69.4238 19.9795C69.3294 19.9795 69.2318 19.9958 69.1309 20.0283C69.0299 20.0576 68.9242 20.0951 68.8135 20.1406L68.1641 20.4092V22.3184Z" fill="white"/>
    <defs>
        <clipPath id="clip0_77_5">
            <rect width="66.55" height="95.0715" fill="white" transform="translate(4.89429 14.9286)"/>
        </clipPath>
    </defs>
</svg>