<svg width="92" height="110" viewBox="0 0 92 110" fill="none"
    xmlns="http://www.w3.org/2000/svg">
    <g clip-path="url(#clip0_11_66)">
        <path fill-rule="evenodd" clip-rule="evenodd" d="M66.5447 19.9089C66.1652 20.0178 65.6707 20.2069 65.4464 20.3272C65.2222 20.4475 57.4942 27.0418 48.2769 34.9824C39.0539 42.9173 31.4064 49.4084 31.2799 49.4084C31.1534 49.4084 27.4619 46.7272 23.0747 43.4501C18.6932 40.1787 14.8637 37.3944 14.5647 37.274C13.7022 36.9131 11.8737 36.9876 11.0399 37.4115C10.0854 37.9043 1.08668 46.836 0.540431 47.8386C-0.207069 49.2136 -0.115069 51.0126 0.770431 52.2272C1.00618 52.5537 4.07668 55.4183 7.58418 58.5865C11.0974 61.7548 13.9494 64.4016 13.9207 64.4647C13.8977 64.5334 11.0744 66.997 7.64743 69.9475C4.22043 72.8923 1.19593 75.5678 0.931431 75.8829C-0.0863187 77.1089 -0.253069 79.0454 0.534681 80.4891C1.08668 81.4917 10.0739 90.4235 11.0399 90.922C11.9944 91.4204 13.8977 91.4318 14.7947 90.9506C15.1339 90.773 18.8197 88.0746 22.9827 84.9579L30.5612 79.2975L31.1879 79.8704C31.5329 80.1855 38.5997 86.5621 46.8854 94.0386C57.4999 103.612 62.2149 107.766 62.8244 108.092L63.6869 108.551H67.5624H71.4379L80.8162 103.887C89.4412 99.6016 90.2462 99.172 90.8672 98.4902C92.0919 97.1324 91.9999 99.8709 91.9999 65.6162C91.9999 32.2668 92.0517 34.2891 91.1317 32.9657C90.7982 32.4845 88.7742 31.0694 81.7362 26.3886C76.8084 23.1115 72.4614 20.2871 72.0762 20.1152C71.5012 19.8574 71.0009 19.7944 69.3047 19.7543C67.9419 19.7256 66.9989 19.7772 66.5447 19.9089ZM76.3139 33.1147L83.4037 37.8126L83.4094 65.4272L83.4152 93.0417L76.4864 96.4792L69.5634 99.9167H67.9247H66.2917L49.7949 85.0438C40.7214 76.8626 33.0509 70.0563 32.7577 69.9131C31.6134 69.3746 29.8827 69.3345 28.9569 69.8329C28.7614 69.936 25.2137 72.5542 21.0679 75.648C16.9222 78.7475 13.4664 81.2798 13.3917 81.2798C13.2192 81.2798 10.6489 78.7131 10.7409 78.6329C14.6107 75.3272 22.6894 68.3548 23.2874 67.799C23.7819 67.335 24.2592 66.699 24.4949 66.1949C24.8227 65.4673 24.8687 65.198 24.8054 64.2298C24.7479 63.3246 24.6444 62.9522 24.2822 62.3735C23.9774 61.8808 21.6717 59.7037 17.2154 55.6876L10.6029 49.7293L11.9312 48.3944C12.6614 47.6553 13.3227 47.0537 13.4032 47.0537C13.4779 47.0537 17.1062 49.7178 21.4532 52.972C30.0552 59.4058 30.2909 59.549 31.8607 59.3657C32.3092 59.3141 32.9647 59.1365 33.3154 58.9704C33.6719 58.8043 36.2077 56.736 38.9447 54.3756C41.6874 52.0152 44.7579 49.3683 45.7699 48.4975C46.7819 47.6266 52.4399 42.7569 58.3452 37.6694C64.2447 32.5876 69.1092 28.4225 69.1494 28.4225C69.1954 28.4168 72.4154 30.5308 76.3139 33.1147ZM66.9299 42.7225C66.7632 42.7569 66.3492 42.8886 66.0099 43.0147C65.6707 43.135 59.8057 47.2428 52.9747 52.1412C39.4852 61.8178 39.7899 61.5714 39.3932 63.3303C39.2437 63.9891 39.2437 64.3444 39.3932 65.0032C39.7842 66.7621 39.4909 66.5157 52.9747 76.1923C59.8057 81.0907 65.7052 85.2214 66.0847 85.3647C68.0799 86.1266 70.3569 85.1985 71.4264 83.1876L71.8347 82.4256V64.1668V45.9079L71.4264 45.1459C70.9147 44.1834 70.1959 43.4902 69.3047 43.1063C68.5744 42.7855 67.4417 42.6022 66.9299 42.7225ZM63.1349 68.5037L63.0947 72.8407L57.0802 68.5438C53.7739 66.1777 51.0657 64.2069 51.0657 64.1668C51.0657 64.1266 53.7739 62.1558 57.0802 59.7897L63.0947 55.4928L63.1349 59.8298C63.1579 62.2131 63.1579 66.1204 63.1349 68.5037Z" fill="white"/>
        <path d="M15.2657 0.0830078L16.9679 3.50781L18.5538 0.0830078H22.5597L17.1935 10.9863C17.1388 11.0911 17.0522 11.1732 16.9337 11.2324C16.8198 11.2917 16.7013 11.3213 16.5782 11.3213C16.4506 11.3213 16.3299 11.2939 16.2159 11.2393C16.1066 11.1846 16.0222 11.1003 15.963 10.9863L10.3097 0.0830078H15.2657ZM23.4278 7.37695C23.4552 7.38151 23.5828 7.42253 23.8107 7.5C24.0431 7.57292 24.3233 7.65723 24.6515 7.75293C24.9796 7.84408 25.3077 7.92611 25.6358 7.99902C25.9685 8.06738 26.2511 8.10156 26.4835 8.10156C26.684 8.10156 26.8481 8.07194 26.9757 8.0127C27.1033 7.95345 27.1671 7.84408 27.1671 7.68457C27.1671 7.51139 27.076 7.35417 26.8937 7.21289C26.7114 7.07161 26.4767 6.92578 26.1896 6.77539C25.907 6.625 25.6039 6.4541 25.2804 6.2627C24.9614 6.07129 24.6583 5.84115 24.3712 5.57227C24.0886 5.30339 23.8562 4.9821 23.6739 4.6084C23.4916 4.23014 23.4005 3.77897 23.4005 3.25488C23.4005 2.6123 23.5349 2.06999 23.8038 1.62793C24.0727 1.18132 24.4327 0.823568 24.8839 0.554688C25.3396 0.28125 25.85 0.0830078 26.4151 -0.0400391C26.9848 -0.163086 27.5681 -0.224609 28.1651 -0.224609C28.671 -0.224609 29.1495 -0.197266 29.6007 -0.142578C30.0519 -0.0878906 30.4324 -0.0286458 30.7423 0.0351562C31.0567 0.0989583 31.255 0.142253 31.337 0.165039V3.30273C31.337 3.30273 31.2413 3.28223 31.0499 3.24121C30.8631 3.2002 30.6261 3.15462 30.339 3.10449C30.0564 3.05436 29.7625 3.00879 29.4571 2.96777C29.1564 2.92676 28.892 2.90625 28.6642 2.90625C28.4545 2.90625 28.2973 2.94271 28.1925 3.01562C28.0877 3.08854 28.0353 3.17513 28.0353 3.27539C28.0353 3.35742 28.0808 3.44857 28.172 3.54883C28.2631 3.64453 28.3725 3.71973 28.5001 3.77441C28.9786 3.98405 29.4298 4.19824 29.8536 4.41699C30.2775 4.63574 30.6511 4.88867 30.9747 5.17578C31.2983 5.46289 31.5512 5.8138 31.7335 6.22852C31.9204 6.63867 32.0138 7.14225 32.0138 7.73926C32.0138 8.4502 31.8338 9.06999 31.4737 9.59863C31.1183 10.1273 30.6033 10.5374 29.9288 10.8291C29.2589 11.1208 28.45 11.2666 27.5021 11.2666C26.6863 11.2666 26.0141 11.2279 25.4855 11.1504C24.9568 11.0729 24.5421 10.9863 24.2413 10.8906C23.9405 10.7904 23.7286 10.7015 23.6056 10.624C23.4871 10.5465 23.4278 10.5078 23.4278 10.5078V7.37695ZM45.7882 10.6787C44.8175 11.0706 43.767 11.2666 42.6368 11.2666C41.8621 11.2666 41.1101 11.1481 40.381 10.9111C39.6564 10.6742 39.0047 10.3278 38.4259 9.87207C37.8517 9.41634 37.3937 8.85579 37.0519 8.19043C36.7146 7.52507 36.546 6.764 36.546 5.90723C36.546 5.00033 36.7055 4.17318 37.0245 3.42578C37.3481 2.67383 37.8061 2.02669 38.3985 1.48438C38.991 0.9375 39.6928 0.515951 40.504 0.219727C41.3152 -0.0764974 42.213 -0.224609 43.1974 -0.224609C43.3797 -0.224609 43.6098 -0.215495 43.8878 -0.197266C44.1704 -0.179036 44.462 -0.144857 44.7628 -0.0947266C45.0636 -0.0491536 45.3347 0.0192057 45.5763 0.110352V3.6377C45.2755 3.52376 44.9679 3.4668 44.6534 3.4668C44.184 3.4668 43.7511 3.58301 43.3546 3.81543C42.9581 4.04329 42.6414 4.35091 42.4044 4.73828C42.1674 5.12565 42.0489 5.55632 42.0489 6.03027C42.0489 6.49967 42.1401 6.86654 42.3224 7.13086C42.5047 7.39518 42.7735 7.52734 43.129 7.52734C43.2703 7.52734 43.4389 7.50456 43.6349 7.45898C43.8308 7.41341 44.0974 7.29948 44.4347 7.11719C44.7765 6.9349 45.2276 6.63867 45.7882 6.22852V10.6787ZM53.048 11.2666C52.2778 11.2666 51.5304 11.1322 50.8058 10.8633C50.0857 10.5898 49.4363 10.2002 48.8575 9.69434C48.2833 9.18848 47.8276 8.58236 47.4903 7.87598C47.1531 7.16504 46.9845 6.37207 46.9845 5.49707C46.9845 4.6403 47.1417 3.861 47.4562 3.15918C47.7752 2.45736 48.215 1.85352 48.7755 1.34766C49.336 0.841797 49.9809 0.454427 50.7101 0.185547C51.4438 -0.0878906 52.2231 -0.224609 53.048 -0.224609C53.9138 -0.224609 54.7205 -0.0924479 55.4679 0.171875C56.2198 0.431641 56.8761 0.812174 57.4366 1.31348C58.0017 1.81022 58.4415 2.41634 58.756 3.13184C59.075 3.84277 59.2345 4.64941 59.2345 5.55176C59.2345 6.42676 59.0681 7.21745 58.7355 7.92383C58.4028 8.62565 57.947 9.22493 57.3683 9.72168C56.7895 10.2184 56.1287 10.6012 55.3858 10.8701C54.6476 11.1344 53.8683 11.2666 53.048 11.2666ZM52.5694 7.71191C52.811 7.71191 53.0685 7.5957 53.3419 7.36328C53.6153 7.1263 53.8728 6.82552 54.1144 6.46094C54.3559 6.09635 54.5519 5.71126 54.7023 5.30566C54.8572 4.90007 54.9347 4.52637 54.9347 4.18457C54.9347 3.86556 54.8504 3.60124 54.6817 3.3916C54.5131 3.18197 54.2283 3.07715 53.8273 3.07715C53.5812 3.07715 53.3168 3.19336 53.0343 3.42578C52.7563 3.65365 52.4942 3.94987 52.2482 4.31445C52.0066 4.67448 51.8084 5.05729 51.6534 5.46289C51.4985 5.86393 51.421 6.23535 51.421 6.57715C51.421 6.90527 51.5076 7.17643 51.6808 7.39062C51.8585 7.60482 52.1547 7.71191 52.5694 7.71191ZM60.5948 0.0830078C60.5948 0.0830078 60.7316 0.0738932 61.005 0.0556641C61.2784 0.0328776 61.6362 0.00553385 62.0782 -0.0263672C62.5203 -0.0582682 63.0011 -0.0878906 63.5206 -0.115234C64.0401 -0.147135 64.5506 -0.172201 65.0519 -0.19043C65.5577 -0.213216 66.0043 -0.224609 66.3917 -0.224609C67.2849 -0.224609 68.0597 -0.0559896 68.7159 0.28125C69.3722 0.61849 69.9145 1.06966 70.3429 1.63477C70.7713 2.19531 71.0903 2.81738 71.2999 3.50098C71.5095 4.18001 71.6144 4.86361 71.6144 5.55176C71.6144 6.40853 71.4685 7.17415 71.1769 7.84863C70.8852 8.52311 70.4773 9.09505 69.9532 9.56445C69.4337 10.0339 68.8207 10.3916 68.1144 10.6377C67.4125 10.8792 66.6515 11 65.8312 11H60.5948V0.0830078ZM64.8468 7.71191C65.0883 7.50684 65.3481 7.30176 65.6261 7.09668C65.9041 6.8916 66.1661 6.67285 66.4122 6.44043C66.6629 6.20801 66.8657 5.94824 67.0206 5.66113C67.1801 5.36947 67.2599 5.03451 67.2599 4.65625C67.2599 4.4056 67.2075 4.15039 67.1026 3.89062C66.9978 3.63086 66.8452 3.41439 66.6446 3.24121C66.4487 3.06348 66.2049 2.97461 65.9132 2.97461C65.7036 2.97461 65.5053 3.03158 65.3185 3.14551C65.1362 3.25944 64.9789 3.39388 64.8468 3.54883V7.71191ZM72.9679 0.0830078H80.836V3.22754H77.2198V4.12305H80.8224V6.80273H77.2198V7.83496H81.0753V11H72.9679V0.0830078Z" fill="white"/>
    </g>
    <defs>
        <clipPath id="clip0_11_66">
            <rect width="92" height="110" fill="white"/>
        </clipPath>
    </defs>
</svg>